mtllib psx_male_base_mesh.mtl
o mesh
usemtl material8
v -0.170000027254091 -1.0100000277161598 0.06000002564627589
v -0.170000027254091 -1.0100000277161598 0.06000002564627589
v -0.170000027254091 -1.0100000277161598 0.06000002564627589
v -0.170000027254091 -1.0100000277161598 0.06000002564627589
v -0.14000002353318694 -0.8099999725818634 0.03000001839114888
v -0.14000002353318694 -0.8099999725818634 0.03000001839114888
v -0.14000002353318694 -0.8099999725818634 0.03000001839114888
v -0.14000002353318694 -0.8099999725818634 0.03000001839114888
v -0.17000002177752255 -1.0100000277161598 -0.10000003466722714
v -0.17000002177752255 -1.0100000277161598 -0.10000003466722714
v -0.17000002177752255 -1.0100000277161598 -0.10000003466722714
v -0.17000002177752255 -1.0100000277161598 -0.10000003466722714
v -0.14000001874118964 -0.8099999725818634 -0.11000003205485971
v -0.14000001874118964 -0.8099999725818634 -0.11000003205485971
v -0.14000001874118964 -0.8099999725818634 -0.11000003205485971
v -0.14000001874118964 -0.8099999725818634 -0.11000003205485971
v -3.080569631926571e-9 -1.080000028014183 0.09000003043388562
v -3.080569631926571e-9 -1.080000028014183 0.09000003043388562
v -3.080569631926571e-9 -1.080000028014183 0.09000003043388562
v -3.080569631926571e-9 -1.080000028014183 0.09000003043388562
v -3.080569631926571e-9 -1.080000028014183 0.09000003043388562
v -3.080569631926571e-9 -1.080000028014183 0.09000003043388562
v -2.395998942639566e-9 -0.8099999725818634 0.07000003360490789
v -2.395998942639566e-9 -0.8099999725818634 0.07000003360490789
v -2.395998942639566e-9 -0.8099999725818634 0.07000003360490789
v -2.395998942639566e-9 -0.8099999725818634 0.07000003360490789
v 4.449711775568105e-9 -1.080000028014183 -0.13000004644358398
v 4.449711775568105e-9 -1.080000028014183 -0.13000004644358398
v 4.449711775568105e-9 -1.080000028014183 -0.13000004644358398
v 4.449711775568105e-9 -1.080000028014183 -0.13000004644358398
v 4.449711775568105e-9 -1.080000028014183 -0.13000004644358398
v 4.449711775568105e-9 -1.080000028014183 -0.13000004644358398
v 5.1342824648551105e-9 -0.8099999725818634 -0.15000004327256172
v 5.1342824648551105e-9 -0.8099999725818634 -0.15000004327256172
v 5.1342824648551105e-9 -0.8099999725818634 -0.15000004327256172
v 5.1342824648551105e-9 -0.8099999725818634 -0.15000004327256172
v -0.029251844320986348 -1.5423725247383118 0.08445895040890403
v -0.029251844320986348 -1.5423725247383118 0.08445895040890403
v -0.029251844320986348 -1.5423725247383118 0.08445895040890403
v -0.029251844320986348 -1.5423725247383118 0.08445895040890403
v -0.030653392897895804 -1.3651710450649261 -0.0992000386671103
v -0.030653392897895804 -1.3651710450649261 -0.0992000386671103
v -0.030653392897895804 -1.3651710450649261 -0.0992000386671103
v -0.030653392897895804 -1.3651710450649261 -0.0992000386671103
v -0.13576034618927765 -1.5447630882263184 0.0665550218785685
v -0.13576034618927765 -1.5447630882263184 0.0665550218785685
v -0.13576034618927765 -1.5447630882263184 0.0665550218785685
v -0.13576034618927765 -1.5447630882263184 0.0665550218785685
v -0.15934663053043255 -1.3648290634155273 -0.07760002652923893
v -0.15934663053043255 -1.3648290634155273 -0.07760002652923893
v -0.15934663053043255 -1.3648290634155273 -0.07760002652923893
v -0.15934663053043255 -1.3648290634155273 -0.07760002652923893
v -0.14291196154222072 -1.4725857973098755 -0.03876631272616848
v -0.14291196154222072 -1.4725857973098755 -0.03876631272616848
v -0.14291196154222072 -1.4725857973098755 -0.03876631272616848
v -0.14291196154222072 -1.4725857973098755 -0.03876631272616848
v -0.15112929967528965 -1.400977075099945 0.048130539276599
v -0.15112929967528965 -1.400977075099945 0.048130539276599
v -0.15112929967528965 -1.400977075099945 0.048130539276599
v -0.15112929967528965 -1.400977075099945 0.048130539276599
v -0.15112929967528965 -1.400977075099945 0.048130539276599
v -0.028870727918560057 -1.3979682326316833 0.06811698768352484
v -0.028870727918560057 -1.3979682326316833 0.06811698768352484
v -0.028870727918560057 -1.3979682326316833 0.06811698768352484
v -0.028870727918560057 -1.3979682326316833 0.06811698768352484
v -0.028870727918560057 -1.3979682326316833 0.06811698768352484
v -0.027088054794721313 -1.4795238673686981 -0.056928683124365984
v -0.027088054794721313 -1.4795238673686981 -0.056928683124365984
v -0.027088054794721313 -1.4795238673686981 -0.056928683124365984
v -0.027088054794721313 -1.4795238673686981 -0.056928683124365984
v -0.09974718521021898 -1.904907763004303 -0.021104019880722753
v -0.09974718521021898 -1.904907763004303 -0.021104019880722753
v -0.09974718521021898 -1.904907763004303 -0.021104019880722753
v -0.09974718521021898 -1.904907763004303 -0.021104019880722753
v -0.09974718733950927 -1.9049077033996582 0.04110401733188039
v -0.09974718733950927 -1.9049077033996582 0.04110401733188039
v -0.09974718733950927 -1.9049077033996582 0.04110401733188039
v -0.09974718733950927 -1.9049077033996582 0.04110401733188039
v -0.030252829587079713 -1.9050924181938171 -0.03276802867034733
v -0.030252829587079713 -1.9050924181938171 -0.03276802867034733
v -0.030252829587079713 -1.9050924181938171 -0.03276802867034733
v -0.030252829587079713 -1.9050924181938171 -0.03276802867034733
v -0.030252829587079713 -1.9050924181938171 -0.03276802867034733
v -0.030252836240144243 -1.9050924181938171 0.052768019703014
v -0.030252836240144243 -1.9050924181938171 0.052768019703014
v -0.030252836240144243 -1.9050924181938171 0.052768019703014
v -0.030252836240144243 -1.9050924181938171 0.052768019703014
v -0.1299146169297648 -1.569257915019989 -0.03366833793428922
v -0.1299146169297648 -1.569257915019989 -0.03366833793428922
v -0.1299146169297648 -1.569257915019989 -0.03366833793428922
v -0.1299146169297648 -1.569257915019989 -0.03366833793428922
v -0.02807323600748682 -1.5753450393676758 -0.05095890515592424
v -0.02807323600748682 -1.5753450393676758 -0.05095890515592424
v -0.02807323600748682 -1.5753450393676758 -0.05095890515592424
v -0.02807323600748682 -1.5753450393676758 -0.05095890515592424
v -0.09974718521021898 -1.9949077367782593 -0.021104019880722753
v -0.09974718521021898 -1.9949077367782593 -0.021104019880722753
v -0.09974718521021898 -1.9949077367782593 -0.021104019880722753
v -0.09974718733950927 -1.9949076771736145 0.04110401733188039
v -0.09974718733950927 -1.9949076771736145 0.04110401733188039
v -0.09974718733950927 -1.9949076771736145 0.04110401733188039
v -0.030252829587079713 -1.9950923919677734 -0.03276802867034733
v -0.030252829587079713 -1.9950923919677734 -0.03276802867034733
v -0.030252829587079713 -1.9950923919677734 -0.03276802867034733
v -0.030252829587079713 -1.9950923919677734 -0.03276802867034733
v -0.030252836240144243 -1.9950923919677734 0.052768019703014
v -0.030252836240144243 -1.9950923919677734 0.052768019703014
v -0.030252836240144243 -1.9950923919677734 0.052768019703014
v -0.03025282547965507 -1.965092420578003 -0.15276802454537566
v -0.03025282547965507 -1.965092420578003 -0.15276802454537566
v -0.03025282547965507 -1.965092420578003 -0.15276802454537566
v -0.0997471811027946 -1.9649077653884888 -0.14110400830517011
v -0.0997471811027946 -1.9649077653884888 -0.14110400830517011
v -0.0997471811027946 -1.9649077653884888 -0.14110400830517011
v -0.03025282547965507 -1.9950923919677734 -0.15276802454537566
v -0.03025282547965507 -1.9950923919677734 -0.15276802454537566
v -0.03025282547965507 -1.9950923919677734 -0.15276802454537566
v -0.0997471811027946 -1.9949077367782593 -0.14110400830517011
v -0.0997471811027946 -1.9949077367782593 -0.14110400830517011
v -0.0997471811027946 -1.9949077367782593 -0.14110400830517011
v -3.867826919194408e-9 -0.5399999916553497 0.1130000558444758
v -3.867826919194408e-9 -0.5399999916553497 0.1130000558444758
v -3.867826919194408e-9 -0.5399999916553497 0.1130000558444758
v -3.867826919194408e-9 -0.5399999916553497 0.1130000558444758
v -0.18850002913751435 -0.5399999916553497 0.08100002764393925
v -0.18850002913751435 -0.5399999916553497 0.08100002764393925
v -0.18850002913751435 -0.5399999916553497 0.08100002764393925
v -0.18850002913751435 -0.5399999916553497 0.08100002764393925
v -0.18850002913751435 -0.5399999916553497 0.08100002764393925
v -0.18850002913751435 -0.5399999916553497 0.08100002764393925
v -0.18850002256563203 -0.5399999916553497 -0.11100005069272914
v -0.18850002256563203 -0.5399999916553497 -0.11100005069272914
v -0.18850002256563203 -0.5399999916553497 -0.11100005069272914
v -0.18850002256563203 -0.5399999916553497 -0.11100005069272914
v -0.18850002256563203 -0.5399999916553497 -0.11100005069272914
v -0.18850002256563203 -0.5399999916553497 -0.11100005069272914
v 5.92153949710044e-9 -0.5399999916553497 -0.17300006123257092
v 5.92153949710044e-9 -0.5399999916553497 -0.17300006123257092
v 5.92153949710044e-9 -0.5399999916553497 -0.17300006123257092
v 5.92153949710044e-9 -0.5399999916553497 -0.17300006123257092
v -3.5255415745509053e-9 -0.3799999952316284 0.10300005742998693
v -3.5255415745509053e-9 -0.3799999952316284 0.10300005742998693
v -3.5255415745509053e-9 -0.3799999952316284 0.10300005742998693
v -3.5255415745509053e-9 -0.3799999952316284 0.10300005742998693
v -0.118500024992645 -0.3799999952316284 0.07100003162544831
v -0.118500024992645 -0.3799999952316284 0.07100003162544831
v -0.118500024992645 -0.3799999952316284 0.07100003162544831
v -0.118500024992645 -0.3799999952316284 0.07100003162544831
v -0.118500024992645 -0.3799999952316284 0.07100003162544831
v -0.11850002115904594 -0.3799999952316284 -0.04100004449414721
v -0.11850002115904594 -0.3799999952316284 -0.04100004449414721
v -0.11850002115904594 -0.3799999952316284 -0.04100004449414721
v -0.11850002115904594 -0.3799999952316284 -0.04100004449414721
v -0.11850002115904594 -0.3799999952316284 -0.04100004449414721
v 3.183256229907403e-9 -0.3799999952316284 -0.09300005901549806
v 3.183256229907403e-9 -0.3799999952316284 -0.09300005901549806
v 3.183256229907403e-9 -0.3799999952316284 -0.09300005901549806
v 3.183256229907403e-9 -0.3799999952316284 -0.09300005901549806
v -0.27850003662750294 -0.49000000953674316 0.06370001396976471
v -0.27850003662750294 -0.49000000953674316 0.06370001396976471
v -0.27850003662750294 -0.49000000953674316 0.06370001396976471
v -0.27850003662750294 -0.49000000953674316 0.06370001396976471
v -0.27850003295135606 -0.49000000953674316 -0.043700036206086056
v -0.27850003295135606 -0.49000000953674316 -0.043700036206086056
v -0.27850003295135606 -0.49000000953674316 -0.043700036206086056
v -0.27850003295135606 -0.49000000953674316 -0.043700036206086056
v -0.22850003710447764 -0.3999999761581421 0.0637000156811917
v -0.22850003710447764 -0.3999999761581421 0.0637000156811917
v -0.22850003710447764 -0.3999999761581421 0.0637000156811917
v -0.2285000337706161 -0.3999999761581421 -0.03370003608017021
v -0.2285000337706161 -0.3999999761581421 -0.03370003608017021
v -0.2285000337706161 -0.3999999761581421 -0.03370003608017021
v -0.310850131472675 -0.6938268840312958 0.06660000994397826
v -0.310850131472675 -0.6938268840312958 0.06660000994397826
v -0.310850131472675 -0.6938268840312958 0.06660000994397826
v -0.310850131472675 -0.6938268840312958 0.06660000994397826
v -0.329063370909124 -0.7163807451725006 -0.04347783553523833
v -0.329063370909124 -0.7163807451725006 -0.04347783553523833
v -0.329063370909124 -0.7163807451725006 -0.04347783553523833
v -0.329063370909124 -0.7163807451725006 -0.04347783553523833
v -0.329063370909124 -0.7163807451725006 -0.04347783553523833
v -0.3961498958334394 -0.6361730992794037 0.0662200050430821
v -0.3961498958334394 -0.6361730992794037 0.0662200050430821
v -0.3961498958334394 -0.6361730992794037 0.0662200050430821
v -0.3961498958334394 -0.6361730992794037 0.0662200050430821
v -0.3472766474076505 -0.7476665377616882 0.058540819570103125
v -0.3472766474076505 -0.7476665377616882 0.058540819570103125
v -0.3472766474076505 -0.7476665377616882 0.058540819570103125
v -0.3472766474076505 -0.7476665377616882 0.058540819570103125
v -0.43172340984227514 -0.6907737255096436 0.06365174386162911
v -0.43172340984227514 -0.6907737255096436 0.06365174386162911
v -0.43172340984227514 -0.6907737255096436 0.06365174386162911
v -0.43172340984227514 -0.6907737255096436 0.06365174386162911
v -0.413936634549289 -0.6593990325927734 -0.034028508740035
v -0.413936634549289 -0.6593990325927734 -0.034028508740035
v -0.413936634549289 -0.6593990325927734 -0.034028508740035
v -0.413936634549289 -0.6593990325927734 -0.034028508740035
v -0.413936634549289 -0.6593990325927734 -0.034028508740035
v -0.490286076675847 -0.9030186682939529 -0.002846175965197814
v -0.490286076675847 -0.9030186682939529 -0.002846175965197814
v -0.490286076675847 -0.9030186682939529 -0.002846175965197814
v -0.490286076675847 -0.9030186682939529 -0.002846175965197814
v -0.48810972991119117 -0.8948964178562164 -0.06890254248241456
v -0.48810972991119117 -0.8948964178562164 -0.06890254248241456
v -0.48810972991119117 -0.8948964178562164 -0.06890254248241456
v -0.48810972991119117 -0.8948964178562164 -0.06890254248241456
v -0.5308176545403269 -0.874832272529602 0.0016962705014745294
v -0.5308176545403269 -0.874832272529602 0.0016962705014745294
v -0.5308176545403269 -0.874832272529602 0.0016962705014745294
v -0.5308176545403269 -0.874832272529602 0.0016962705014745294
v -0.5287866836625891 -0.8672525435686111 -0.05994762355172973
v -0.5287866836625891 -0.8672525435686111 -0.05994762355172973
v -0.5287866836625891 -0.8672525435686111 -0.05994762355172973
v -0.5287866836625891 -0.8672525435686111 -0.05994762355172973
v -0.5329935222802425 -1.0092354901134968 0.0038422798902215073
v -0.5329935222802425 -1.0092354901134968 0.0038422798902215073
v -0.5329935222802425 -1.0092354901134968 0.0038422798902215073
v -0.5288584462305731 -0.9938032161444426 -0.101664812212931
v -0.5288584462305731 -0.9938032161444426 -0.101664812212931
v -0.5288584462305731 -0.9938032161444426 -0.101664812212931
v -0.6000035113774521 -0.9556813389062881 0.01247292628401037
v -0.6000035113774521 -0.9556813389062881 0.01247292628401037
v -0.6000035113774521 -0.9556813389062881 0.01247292628401037
v -0.5961446435524621 -0.9412798583507538 -0.084650466647402
v -0.5961446435524621 -0.9412798583507538 -0.084650466647402
v -0.5961446435524621 -0.9412798583507538 -0.084650466647402
v -2.347736698078864e-9 -0.3500000238418579 0.06859003350808997
v -2.347736698078864e-9 -0.3500000238418579 0.06859003350808997
v -2.347736698078864e-9 -0.3500000238418579 0.06859003350808997
v -2.347736698078864e-9 -0.3500000238418579 0.06859003350808997
v -0.06850002469708104 -0.3500000238418579 0.04843001820696511
v -0.06850002469708104 -0.3500000238418579 0.04843001820696511
v -0.06850002469708104 -0.3500000238418579 0.04843001820696511
v -0.06850002469708104 -0.3500000238418579 0.04843001820696511
v -0.06850002228191365 -0.3500000238418579 -0.02213002900332198
v -0.06850002228191365 -0.3500000238418579 -0.02213002900332198
v -0.06850002228191365 -0.3500000238418579 -0.02213002900332198
v -0.06850002228191365 -0.3500000238418579 -0.02213002900332198
v 1.8788059008782946e-9 -0.3500000238418579 -0.054890039331024904
v 1.8788059008782946e-9 -0.3500000238418579 -0.054890039331024904
v 1.8788059008782946e-9 -0.3500000238418579 -0.054890039331024904
v 1.8788059008782946e-9 -0.3500000238418579 -0.054890039331024904
v -2.347736698078864e-9 -0.2900000214576721 0.06859003350808997
v -2.347736698078864e-9 -0.2900000214576721 0.06859003350808997
v -2.347736698078864e-9 -0.2900000214576721 0.06859003350808997
v -2.347736698078864e-9 -0.2900000214576721 0.06859003350808997
v -0.05850002628259217 -0.2900000214576721 0.04843001854925045
v -0.05850002628259217 -0.2900000214576721 0.04843001854925045
v -0.05850002628259217 -0.2900000214576721 0.04843001854925045
v -0.05850002628259217 -0.2900000214576721 0.04843001854925045
v -0.058500023867424776 -0.2900000214576721 -0.022130028661036635
v -0.058500023867424776 -0.2900000214576721 -0.022130028661036635
v -0.058500023867424776 -0.2900000214576721 -0.022130028661036635
v -0.058500023867424776 -0.2900000214576721 -0.022130028661036635
v 1.8788059008782946e-9 -0.2900000214576721 -0.054890039331024904
v 1.8788059008782946e-9 -0.2900000214576721 -0.054890039331024904
v 1.8788059008782946e-9 -0.2900000214576721 -0.054890039331024904
v 1.8788059008782946e-9 -0.2900000214576721 -0.054890039331024904
v -3.6927478469513016e-9 -0.23000001907348633 0.10788505319466987
v -3.6927478469513016e-9 -0.23000001907348633 0.10788505319466987
v -3.6927478469513016e-9 -0.23000001907348633 0.10788505319466987
v -3.6927478469513016e-9 -0.23000001907348633 0.10788505319466987
v -0.07062503569782813 -0.23000001907348633 0.077645027617284
v -0.07062503569782813 -0.23000001907348633 0.077645027617284
v -0.07062503569782813 -0.23000001907348633 0.077645027617284
v -0.07062503569782813 -0.23000001907348633 0.077645027617284
v -0.06062503263373218 -0.2799999713897705 -0.05819503716800527
v -0.06062503263373218 -0.2799999713897705 -0.05819503716800527
v -0.06062503263373218 -0.2799999713897705 -0.05819503716800527
v -0.06062503263373218 -0.2799999713897705 -0.05819503716800527
v 3.3316369957939497e-9 -0.28999996185302734 -0.09733506034356114
v 3.3316369957939497e-9 -0.28999996185302734 -0.09733506034356114
v 3.3316369957939497e-9 -0.28999996185302734 -0.09733506034356114
v 3.3316369957939497e-9 -0.28999996185302734 -0.09733506034356114
v -4.0350331915948044e-9 -0.12999999523162842 0.11788505160915874
v -4.0350331915948044e-9 -0.12999999523162842 0.11788505160915874
v -4.0350331915948044e-9 -0.12999999523162842 0.11788505160915874
v -4.0350331915948044e-9 -0.12999999523162842 0.11788505160915874
v -0.08562502993655656 -0.12999999523162842 0.08764503296892592
v -0.08562502993655656 -0.12999999523162842 0.08764503296892592
v -0.08562502993655656 -0.12999999523162842 0.08764503296892592
v -0.08562502993655656 -0.12999999523162842 0.08764503296892592
v -0.08562502494466387 -0.15999996662139893 -0.058195038023718504
v -0.08562502494466387 -0.15999996662139893 -0.058195038023718504
v -0.08562502494466387 -0.15999996662139893 -0.058195038023718504
v -0.08562502494466387 -0.15999996662139893 -0.058195038023718504
v 3.3316369957939497e-9 -0.15999996662139893 -0.09733506034356114
v 3.3316369957939497e-9 -0.15999996662139893 -0.09733506034356114
v 3.3316369957939497e-9 -0.15999996662139893 -0.09733506034356114
v 3.3316369957939497e-9 -0.15999996662139893 -0.09733506034356114
v -2.105723908356004e-9 -0.050000011920928955 0.06151953647575211
v -2.105723908356004e-9 -0.050000011920928955 0.06151953647575211
v -2.105723908356004e-9 -0.050000011920928955 0.06151953647575211
v -2.105723908356004e-9 -0.050000011920928955 0.06151953647575211
v -0.06278127139244197 -0.06000000238418579 0.040351521095077406
v -0.06278127139244197 -0.06000000238418579 0.040351521095077406
v -0.06278127139244197 -0.06000000238418579 0.040351521095077406
v -0.06278126885651626 -0.06000000238418579 -0.0337365270787401
v -0.06278126885651626 -0.06000000238418579 -0.0337365270787401
v -0.06278126885651626 -0.06000000238418579 -0.0337365270787401
v 2.3321461520782727e-9 -0.050000011920928955 -0.06813454969107377
v 2.3321461520782727e-9 -0.050000011920928955 -0.06813454969107377
v 2.3321461520782727e-9 -0.050000011920928955 -0.06813454969107377
v 2.3321461520782727e-9 -0.050000011920928955 -0.06813454969107377
v 0.17000002314666404 -1.0100000277161598 0.06000003728398118
v 0.17000002314666404 -1.0100000277161598 0.06000003728398118
v 0.17000002314666404 -1.0100000277161598 0.06000003728398118
v 0.17000002314666404 -1.0100000277161598 0.06000003728398118
v 0.14000002147947296 -0.8099999725818634 0.03000002797514159
v 0.14000002147947296 -0.8099999725818634 0.03000002797514159
v 0.14000002147947296 -0.8099999725818634 0.03000002797514159
v 0.14000002147947296 -0.8099999725818634 0.03000002797514159
v 0.1700000286232325 -1.0100000277161598 -0.10000002302952184
v 0.1700000286232325 -1.0100000277161598 -0.10000002302952184
v 0.1700000286232325 -1.0100000277161598 -0.10000002302952184
v 0.1700000286232325 -1.0100000277161598 -0.10000002302952184
v 0.14000002627147026 -0.8099999725818634 -0.110000022470867
v 0.14000002627147026 -0.8099999725818634 -0.110000022470867
v 0.14000002627147026 -0.8099999725818634 -0.110000022470867
v 0.14000002627147026 -0.8099999725818634 -0.110000022470867
v 0.029251838539173174 -1.5423725247383118 0.08445895241139967
v 0.029251838539173174 -1.5423725247383118 0.08445895241139967
v 0.029251838539173174 -1.5423725247383118 0.08445895241139967
v 0.029251838539173174 -1.5423725247383118 0.08445895241139967
v 0.030653399688840694 -1.3651710450649261 -0.0992000365686683
v 0.030653399688840694 -1.3651710450649261 -0.0992000365686683
v 0.030653399688840694 -1.3651710450649261 -0.0992000365686683
v 0.030653399688840694 -1.3651710450649261 -0.0992000365686683
v 0.13576034163311487 -1.5447630882263184 0.06655503117232518
v 0.13576034163311487 -1.5447630882263184 0.06655503117232518
v 0.13576034163311487 -1.5447630882263184 0.06655503117232518
v 0.13576034163311487 -1.5447630882263184 0.06655503117232518
v 0.1593466358427034 -1.3648290634155273 -0.07760001562083375
v 0.1593466358427034 -1.3648290634155273 -0.07760001562083375
v 0.1593466358427034 -1.3648290634155273 -0.07760001562083375
v 0.1593466358427034 -1.3648290634155273 -0.07760001562083375
v 0.14291196419604893 -1.4725857973098755 -0.038766302942832835
v 0.14291196419604893 -1.4725857973098755 -0.038766302942832835
v 0.14291196419604893 -1.4725857973098755 -0.038766302942832835
v 0.14291196419604893 -1.4725857973098755 -0.038766302942832835
v 0.15112929638041311 -1.400977075099945 0.04813054962246941
v 0.15112929638041311 -1.400977075099945 0.04813054962246941
v 0.15112929638041311 -1.400977075099945 0.04813054962246941
v 0.15112929638041311 -1.400977075099945 0.04813054962246941
v 0.15112929638041311 -1.400977075099945 0.04813054962246941
v 0.028870723255469927 -1.3979682326316833 0.0681169896599304
v 0.028870723255469927 -1.3979682326316833 0.0681169896599304
v 0.028870723255469927 -1.3979682326316833 0.0681169896599304
v 0.028870723255469927 -1.3979682326316833 0.0681169896599304
v 0.028870723255469927 -1.3979682326316833 0.0681169896599304
v 0.02708805869189265 -1.4795238673686981 -0.05692868126999673
v 0.02708805869189265 -1.4795238673686981 -0.05692868126999673
v 0.02708805869189265 -1.4795238673686981 -0.05692868126999673
v 0.02708805869189265 -1.4795238673686981 -0.05692868126999673
v 0.09974718665493833 -1.904907763004303 -0.021104013052321687
v 0.09974718665493833 -1.904907763004303 -0.021104013052321687
v 0.09974718665493833 -1.904907763004303 -0.021104013052321687
v 0.09974718665493833 -1.904907763004303 -0.021104013052321687
v 0.09974718452564804 -1.9049077033996582 0.04110402416028146
v 0.09974718452564804 -1.9049077033996582 0.04110402416028146
v 0.09974718452564804 -1.9049077033996582 0.04110402416028146
v 0.09974718452564804 -1.9049077033996582 0.04110402416028146
v 0.030252831830283197 -1.9050924181938171 -0.03276802659932688
v 0.030252831830283197 -1.9050924181938171 -0.03276802659932688
v 0.030252831830283197 -1.9050924181938171 -0.03276802659932688
v 0.030252831830283197 -1.9050924181938171 -0.03276802659932688
v 0.030252831830283197 -1.9050924181938171 -0.03276802659932688
v 0.03025283262779964 -1.9050924181938171 0.0527680217740347
v 0.03025283262779964 -1.9050924181938171 0.0527680217740347
v 0.03025283262779964 -1.9050924181938171 0.0527680217740347
v 0.03025283262779964 -1.9050924181938171 0.0527680217740347
v 0.12991461923460057 -1.569257915019989 -0.033668329040713846
v 0.12991461923460057 -1.569257915019989 -0.033668329040713846
v 0.12991461923460057 -1.569257915019989 -0.033668329040713846
v 0.12991461923460057 -1.569257915019989 -0.033668329040713846
v 0.02807323949598459 -1.5753450393676758 -0.05095890323411236
v 0.02807323949598459 -1.5753450393676758 -0.05095890323411236
v 0.02807323949598459 -1.5753450393676758 -0.05095890323411236
v 0.02807323949598459 -1.5753450393676758 -0.05095890323411236
v 0.09974718665493833 -1.9949077367782593 -0.021104013052321687
v 0.09974718665493833 -1.9949077367782593 -0.021104013052321687
v 0.09974718665493833 -1.9949077367782593 -0.021104013052321687
v 0.09974718452564804 -1.9949076771736145 0.04110402416028146
v 0.09974718452564804 -1.9949076771736145 0.04110402416028146
v 0.09974718452564804 -1.9949076771736145 0.04110402416028146
v 0.030252831830283197 -1.9950923919677734 -0.03276802659932688
v 0.030252831830283197 -1.9950923919677734 -0.03276802659932688
v 0.030252831830283197 -1.9950923919677734 -0.03276802659932688
v 0.030252831830283197 -1.9950923919677734 -0.03276802659932688
v 0.03025283262779964 -1.9950923919677734 0.0527680217740347
v 0.03025283262779964 -1.9950923919677734 0.0527680217740347
v 0.03025283262779964 -1.9950923919677734 0.0527680217740347
v 0.03025283593770784 -1.965092420578003 -0.1527680224743552
v 0.03025283593770784 -1.965092420578003 -0.1527680224743552
v 0.03025283593770784 -1.965092420578003 -0.1527680224743552
v 0.09974719076236271 -1.9649077653884888 -0.14110400147676905
v 0.09974719076236271 -1.9649077653884888 -0.14110400147676905
v 0.09974719076236271 -1.9649077653884888 -0.14110400147676905
v 0.03025283593770784 -1.9950923919677734 -0.1527680224743552
v 0.03025283593770784 -1.9950923919677734 -0.1527680224743552
v 0.03025283593770784 -1.9950923919677734 -0.1527680224743552
v 0.09974719076236271 -1.9949077367782593 -0.14110400147676905
v 0.09974719076236271 -1.9949077367782593 -0.14110400147676905
v 0.09974719076236271 -1.9949077367782593 -0.14110400147676905
v 0.18850002359248857 -0.5399999916553497 0.0810000405481006
v 0.18850002359248857 -0.5399999916553497 0.0810000405481006
v 0.18850002359248857 -0.5399999916553497 0.0810000405481006
v 0.18850002359248857 -0.5399999916553497 0.0810000405481006
v 0.18850002359248857 -0.5399999916553497 0.0810000405481006
v 0.18850002359248857 -0.5399999916553497 0.0810000405481006
v 0.1885000301643709 -0.5399999916553497 -0.11100003778856779
v 0.1885000301643709 -0.5399999916553497 -0.11100003778856779
v 0.1885000301643709 -0.5399999916553497 -0.11100003778856779
v 0.1885000301643709 -0.5399999916553497 -0.11100003778856779
v 0.1885000301643709 -0.5399999916553497 -0.11100003778856779
v 0.1885000301643709 -0.5399999916553497 -0.11100003778856779
v 0.11850002013218991 -0.3799999952316284 0.0710000397376138
v 0.11850002013218991 -0.3799999952316284 0.0710000397376138
v 0.11850002013218991 -0.3799999952316284 0.0710000397376138
v 0.11850002013218991 -0.3799999952316284 0.0710000397376138
v 0.11850002013218991 -0.3799999952316284 0.0710000397376138
v 0.11850002396578897 -0.3799999952316284 -0.041000036381981714
v 0.11850002396578897 -0.3799999952316284 -0.041000036381981714
v 0.11850002396578897 -0.3799999952316284 -0.041000036381981714
v 0.11850002396578897 -0.3799999952316284 -0.041000036381981714
v 0.11850002396578897 -0.3799999952316284 -0.041000036381981714
v 0.2785000322667854 -0.49000000953674316 0.0637000330350638
v 0.2785000322667854 -0.49000000953674316 0.0637000330350638
v 0.2785000322667854 -0.49000000953674316 0.0637000330350638
v 0.2785000322667854 -0.49000000953674316 0.0637000330350638
v 0.27850003594293227 -0.49000000953674316 -0.04370001714078698
v 0.27850003594293227 -0.49000000953674316 -0.04370001714078698
v 0.27850003594293227 -0.49000000953674316 -0.04370001714078698
v 0.27850003594293227 -0.49000000953674316 -0.04370001714078698
v 0.22850003274376007 -0.3999999761581421 0.06370003132363682
v 0.22850003274376007 -0.3999999761581421 0.06370003132363682
v 0.22850003274376007 -0.3999999761581421 0.06370003132363682
v 0.22850003607762162 -0.3999999761581421 -0.033700020437725096
v 0.22850003607762162 -0.3999999761581421 -0.033700020437725096
v 0.22850003607762162 -0.3999999761581421 -0.033700020437725096
v 0.3108501269134321 -0.6938268840312958 0.06660003122387036
v 0.3108501269134321 -0.6938268840312958 0.06660003122387036
v 0.3108501269134321 -0.6938268840312958 0.06660003122387036
v 0.3108501269134321 -0.6938268840312958 0.06660003122387036
v 0.32906337388548895 -0.7163807451725006 -0.0434778130085208
v 0.32906337388548895 -0.7163807451725006 -0.0434778130085208
v 0.32906337388548895 -0.7163807451725006 -0.0434778130085208
v 0.32906337388548895 -0.7163807451725006 -0.0434778130085208
v 0.32906337388548895 -0.7163807451725006 -0.0434778130085208
v 0.3961498913002103 -0.6361730992794037 0.06622003216234697
v 0.3961498913002103 -0.6361730992794037 0.06622003216234697
v 0.3961498913002103 -0.6361730992794037 0.06622003216234697
v 0.3961498913002103 -0.6361730992794037 0.06622003216234697
v 0.3472766434001161 -0.7476665377616882 0.05854084334364815
v 0.3472766434001161 -0.7476665377616882 0.05854084334364815
v 0.3472766434001161 -0.7476665377616882 0.05854084334364815
v 0.3472766434001161 -0.7476665377616882 0.05854084334364815
v 0.4317234054848616 -0.6907737255096436 0.06365177341615288
v 0.4317234054848616 -0.6907737255096436 0.06365177341615288
v 0.4317234054848616 -0.6907737255096436 0.06365177341615288
v 0.4317234054848616 -0.6907737255096436 0.06365177341615288
v 0.41393663687878035 -0.6593990325927734 -0.03402848040314171
v 0.41393663687878035 -0.6593990325927734 -0.03402848040314171
v 0.41393663687878035 -0.6593990325927734 -0.03402848040314171
v 0.41393663687878035 -0.6593990325927734 -0.03402848040314171
v 0.41393663687878035 -0.6593990325927734 -0.03402848040314171
v 0.4902860768706867 -0.9030186682939529 -0.00284614240164474
v 0.4902860768706867 -0.9030186682939529 -0.00284614240164474
v 0.4902860768706867 -0.9030186682939529 -0.00284614240164474
v 0.4902860768706867 -0.9030186682939529 -0.00284614240164474
v 0.48810973462805685 -0.8948964178562164 -0.06890250906784767
v 0.48810973462805685 -0.8948964178562164 -0.06890250906784767
v 0.48810973462805685 -0.8948964178562164 -0.06890250906784767
v 0.48810973462805685 -0.8948964178562164 -0.06890250906784767
v 0.530817654424204 -0.874832272529602 0.0016963068397010523
v 0.530817654424204 -0.874832272529602 0.0016963068397010523
v 0.530817654424204 -0.874832272529602 0.0016963068397010523
v 0.530817654424204 -0.874832272529602 0.0016963068397010523
v 0.528786687766427 -0.8672525435686111 -0.05994758735253739
v 0.528786687766427 -0.8672525435686111 -0.05994758735253739
v 0.528786687766427 -0.8672525435686111 -0.05994758735253739
v 0.528786687766427 -0.8672525435686111 -0.05994758735253739
v 0.5329935220172101 -1.0092354901134968 0.0038423163774015763
v 0.5329935220172101 -1.0092354901134968 0.0038423163774015763
v 0.5329935220172101 -1.0092354901134968 0.0038423163774015763
v 0.5288584531902479 -0.9938032161444426 -0.10166477600882592
v 0.5288584531902479 -0.9938032161444426 -0.10166477600882592
v 0.5288584531902479 -0.9938032161444426 -0.10166477600882592
v 0.6000035105235907 -0.9556813389062881 0.01247296735849859
v 0.6000035105235907 -0.9556813389062881 0.01247296735849859
v 0.6000035105235907 -0.9556813389062881 0.01247296735849859
v 0.5961446493473844 -0.9412798583507538 -0.08465042583708038
v 0.5961446493473844 -0.9412798583507538 -0.08465042583708038
v 0.5961446493473844 -0.9412798583507538 -0.08465042583708038
v 0.06850002138170326 -0.3500000238418579 0.048430022896276646
v 0.06850002138170326 -0.3500000238418579 0.048430022896276646
v 0.06850002138170326 -0.3500000238418579 0.048430022896276646
v 0.06850002138170326 -0.3500000238418579 0.048430022896276646
v 0.06850002379687065 -0.3500000238418579 -0.022130024314010437
v 0.06850002379687065 -0.3500000238418579 -0.022130024314010437
v 0.06850002379687065 -0.3500000238418579 -0.022130024314010437
v 0.06850002379687065 -0.3500000238418579 -0.022130024314010437
v 0.05850002296721439 -0.2900000214576721 0.04843002255399131
v 0.05850002296721439 -0.2900000214576721 0.04843002255399131
v 0.05850002296721439 -0.2900000214576721 0.04843002255399131
v 0.05850002296721439 -0.2900000214576721 0.04843002255399131
v 0.05850002538238178 -0.2900000214576721 -0.022130024656295783
v 0.05850002538238178 -0.2900000214576721 -0.022130024656295783
v 0.05850002538238178 -0.2900000214576721 -0.022130024656295783
v 0.05850002538238178 -0.2900000214576721 -0.022130024656295783
v 0.07062503038247611 -0.23000001907348633 0.07764503245206751
v 0.07062503038247611 -0.23000001907348633 0.07764503245206751
v 0.07062503038247611 -0.23000001907348633 0.07764503245206751
v 0.07062503038247611 -0.23000001907348633 0.07764503245206751
v 0.06062503661759434 -0.2799999713897705 -0.05819503301779244
v 0.06062503661759434 -0.2799999713897705 -0.05819503301779244
v 0.06062503661759434 -0.2799999713897705 -0.05819503301779244
v 0.06062503661759434 -0.2799999713897705 -0.05819503301779244
v 0.08562502393663333 -0.12999999523162842 0.08764503883056524
v 0.08562502393663333 -0.12999999523162842 0.08764503883056524
v 0.08562502393663333 -0.12999999523162842 0.08764503883056524
v 0.08562502393663333 -0.12999999523162842 0.08764503883056524
v 0.08562502892852603 -0.15999996662139893 -0.058195032162079205
v 0.08562502892852603 -0.15999996662139893 -0.058195032162079205
v 0.08562502892852603 -0.15999996662139893 -0.058195032162079205
v 0.08562502892852603 -0.15999996662139893 -0.058195032162079205
v 0.06278126863009453 -0.06000000238418579 0.04035152539289981
v 0.06278126863009453 -0.06000000238418579 0.04035152539289981
v 0.06278126863009453 -0.06000000238418579 0.04035152539289981
v 0.06278127116602024 -0.06000000238418579 -0.033736522780917697
v 0.06278127116602024 -0.06000000238418579 -0.033736522780917697
v 0.06278127116602024 -0.06000000238418579 -0.033736522780917697
vt 0.15617363154888153 0.35206538438796997
vt 0.15617363154888153 0.35206538438796997
vt 0.8433282375335693 0.193159818649292
vt 0.8433282375335693 0.193159818649292
vt 0.13366569578647614 0.4310547113418579
vt 0.13366569578647614 0.4310547113418579
vt 0.8563804030418396 0.11283224821090698
vt 0.8563804030418396 0.11283224821090698
vt 0.9043362736701965 0.1945420503616333
vt 0.9043362736701965 0.1945420503616333
vt 0.6941331624984741 0.3779360055923462
vt 0.6941331624984741 0.3779360055923462
vt 0.9097625017166138 0.11404168605804443
vt 0.9097625017166138 0.11404168605804443
vt 0.6493028402328491 0.44520437717437744
vt 0.6493028402328491 0.44520437717437744
vt 0.22583641111850739 0.35692673921585083
vt 0.22583641111850739 0.35692673921585083
vt 0.22583641111850739 0.35692673921585083
vt 0.22583641111850739 0.35692673921585083
vt 0.838944673538208 0.6133832931518555
vt 0.42640990018844604 0.9999999403953552
vt 0.1813322901725769 0.4565742015838623
vt 0.1813322901725769 0.4565742015838623
vt 0.1813322901725769 0.4565742015838623
vt 0.1813322901725769 0.4565742015838623
vt 0.9228217601776123 0.6156995892524719
vt 0.5102870464324951 0.9976911544799805
vt 0.6505276560783386 0.32031476497650146
vt 0.6505276560783386 0.32031476497650146
vt 0.6505276560783386 0.32031476497650146
vt 0.6505276560783386 0.32031476497650146
vt 0.6038793325424194 0.41885948181152344
vt 0.6038793325424194 0.41885948181152344
vt 0.6038793325424194 0.41885948181152344
vt 0.6038793325424194 0.41885948181152344
vt 0.29241254925727844 0.18056261539459229
vt 0.29241254925727844 0.18056261539459229
vt 0.42398372292518616 0.8116417527198792
vt 0.42398372292518616 0.8116417527198792
vt 0.4957411289215088 0.8823204040527344
vt 0.4957411289215088 0.8823204040527344
vt 0.7097054719924927 0.22199559211730957
vt 0.7097054719924927 0.22199559211730957
vt 0.2564162611961365 0.1604176163673401
vt 0.2564162611961365 0.1604176163673401
vt 0.8365209102630615 0.41320621967315674
vt 0.8365209102630615 0.41320621967315674
vt 0.8929361701011658 0.3399045467376709
vt 0.8929361701011658 0.3399045467376709
vt 0.7520149350166321 0.24643075466156006
vt 0.7520149350166321 0.24643075466156006
vt 0.8772613406181335 0.38430631160736084
vt 0.8772613406181335 0.38430631160736084
vt 0.7638595700263977 0.2037903070449829
vt 0.7638595700263977 0.2037903070449829
vt 0.2275179624557495 0.21064084768295288
vt 0.2275179624557495 0.21064084768295288
vt 0.8447041511535645 0.35393524169921875
vt 0.8447041511535645 0.35393524169921875
vt 0.8447041511535645 0.35393524169921875
vt 0.26879918575286865 0.23385584354400635
vt 0.26879918575286865 0.23385584354400635
vt 0.43162912130355835 0.8705847859382629
vt 0.43162912130355835 0.8705847859382629
vt 0.43162912130355835 0.8705847859382629
vt 0.47850552201271057 0.8358163833618164
vt 0.47850552201271057 0.8358163833618164
vt 0.7268946766853333 0.1793738603591919
vt 0.7268946766853333 0.1793738603591919
vt 0.8670447468757629 0.5627192258834839
vt 0.8670447468757629 0.5627192258834839
vt 0.31968751549720764 0.9011921882629395
vt 0.8246296644210815 0.03789114952087402
vt 0.3286813199520111 0.033297836780548096
vt 0.3286813199520111 0.033297836780548096
vt 0.8433248400688171 0.562181830406189
vt 0.8433248400688171 0.562181830406189
vt 0.4651236832141876 0.6619271039962769
vt 0.4651236832141876 0.6619271039962769
vt 0.4651236832141876 0.6619271039962769
vt 0.2931833863258362 0.8965572714805603
vt 0.801782488822937 0.02469611167907715
vt 0.35245707631111145 0.04579639434814453
vt 0.35245707631111145 0.04579639434814453
vt 0.4325122535228729 0.662824809551239
vt 0.4325122535228729 0.662824809551239
vt 0.8745390176773071 0.4243268370628357
vt 0.8745390176773071 0.4243268370628357
vt 0.7762778401374817 0.16605091094970703
vt 0.7762778401374817 0.16605091094970703
vt 0.4752903878688812 0.7966784834861755
vt 0.4752903878688812 0.7966784834861755
vt 0.7438265681266785 0.14459508657455444
vt 0.7438265681266785 0.14459508657455444
vt 0.41002753376960754 0.8526397347450256
vt 0.41002753376960754 0.8526397347450256
vt 0.866319477558136 0.5995292663574219
vt 0.34358447790145874 0
vt 0.41002753376960754 0.8271070122718811
vt 0.8425995707511902 0.5989918112754822
vt 0.3836454749107361 0.8572736978530884
vt 0.46424198150634766 0.62507563829422
vt 0.3836454749107361 0.8572736978530884
vt 0.46424198150634766 0.62507563829422
vt 0.3673602342605591 0.012498557567596436
vt 0.3836454749107361 0.8221662044525146
vt 0.4316304922103882 0.6259732842445374
vt 0.5102870464324951 0.6361002326011658
vt 0.2931833863258362 0.842379629611969
vt 0.8099604249000549 0.8224083185195923
vt 0.9123172760009766 0.5882959961891174
vt 0.31968751549720764 0.8470146059989929
vt 0.8099604249000549 0.7944697141647339
vt 0.3836454749107361 0.9065266251564026
vt 0.5099931359291077 0.6238163709640503
vt 0.7985271215438843 0.822563111782074
vt 0.41002753376960754 0.9018926620483398
vt 0.9120755791664124 0.6005659699440002
vt 0.7985271215438843 0.7946245074272156
vt 0.13618139922618866 0.5569964647293091
vt 0.13618139922618866 0.5569964647293091
vt 0.13618139922618866 0.5569964647293091
vt 0.13618139922618866 0.5569964647293091
vt 0.07177740335464478 0.5229050517082214
vt 0.07177740335464478 0.5229050517082214
vt 0.07177740335464478 0.5229050517082214
vt 0.07177740335464478 0.5229050517082214
vt 0.8391075730323792 5.960464477539063e-8
vt 0.2080664187669754 0.8372406959533691
vt 0.9123172760009766 0.0016587376594543457
vt 0.2812921702861786 0.8372406959533691
vt 0.6181821227073669 0.5528439879417419
vt 0.6181821227073669 0.5528439879417419
vt 0.6181821227073669 0.5528439879417419
vt 0.6181821227073669 0.5528439879417419
vt 0.5573526620864868 0.517422616481781
vt 0.5573526620864868 0.517422616481781
vt 0.5573526620864868 0.517422616481781
vt 0.5573526620864868 0.517422616481781
vt 0.10978957265615463 0.6160696148872375
vt 0.10978957265615463 0.6160696148872375
vt 0.10978957265615463 0.6160696148872375
vt 0.10978957265615463 0.6160696148872375
vt 0.06942412257194519 0.5944920182228088
vt 0.06942412257194519 0.5944920182228088
vt 0.06942412257194519 0.5944920182228088
vt 0.727106511592865 0.6690358519554138
vt 0.727106511592865 0.6690358519554138
vt 0.685999870300293 0.6690358519554138
vt 0.685999870300293 0.6690358519554138
vt 0.685999870300293 0.6690358519554138
vt 0.5636997222900391 0.5974416732788086
vt 0.5636997222900391 0.5974416732788086
vt 0.6669146418571472 0.7177495360374451
vt 0.6669146418571472 0.7177495360374451
vt 0.5259871482849121 0.5752542614936829
vt 0.5259871482849121 0.5752542614936829
vt 0.03276870399713516 0.525101900100708
vt 0.03276870399713516 0.525101900100708
vt 0.7458630800247192 0.658448338508606
vt 0.7458630800247192 0.658448338508606
vt 0.7866359353065491 0.6626718640327454
vt 0.7866359353065491 0.6626718640327454
vt 0.6369090676307678 0.5877503156661987
vt 0.6369090676307678 0.5877503156661987
vt 0.03503594547510147 0.5673381090164185
vt 0.7490002512931824 0.6238163709640503
vt 0.7223536372184753 0.6238163709640503
vt 0.785976767539978 0.6276466846466064
vt 0.6866055727005005 0.6238163709640503
vt 0.6038827896118164 0.6109992265701294
vt 0.055381469428539276 0.4439433813095093
vt 0.055381469428539276 0.4439433813095093
vt 0.2134053111076355 0.7785111665725708
vt 0.2134053111076355 0.7785111665725708
vt 0.25536447763442993 0.7699098587036133
vt 0.25536447763442993 0.7699098587036133
vt 0.3334678113460541 0.8295623660087585
vt 0.6936826109886169 0.5148313641548157
vt 0.6936826109886169 0.5148313641548157
vt 0.01654578000307083 0.4500201940536499
vt 0.01654578000307083 0.4500201940536499
vt 0.7399114966392517 0.7131267786026001
vt 0.7399114966392517 0.7131267786026001
vt 0.05187032371759415 0.41741299629211426
vt 0.05187032371759415 0.41741299629211426
vt 0.2164326161146164 0.7577320337295532
vt 0.2931833863258362 0.8295623660087585
vt 0.013397238217294216 0.4234282374382019
vt 0.013397238217294216 0.4234282374382019
vt 0.7389976382255554 0.7340266704559326
vt 0.7389976382255554 0.7340266704559326
vt 0.7771732807159424 0.7258092761039734
vt 0.7771732807159424 0.7258092761039734
vt 0.7771732807159424 0.7258092761039734
vt 0.7118039131164551 0.5516648888587952
vt 0.7118039131164551 0.5516648888587952
vt 0.0291147343814373 0.33361589908599854
vt 0.0291147343814373 0.33361589908599854
vt 0.6669145822525024 0.8332065939903259
vt 0.30120813846588135 0.7619937658309937
vt 0.6674805283546448 0.8605518937110901
vt 0.32624417543411255 0.757732093334198
vt 0.7795355916023254 0.48012304306030273
vt 0.7795355916023254 0.48012304306030273
vt 0.010481808334589005 0.3368542790412903
vt 0.010481808334589005 0.3368542790412903
vt 0.7560935616493225 0.8074161410331726
vt 0.7560935616493225 0.8074161410331726
vt 0.7797660231590271 0.8068356513977051
vt 0.7797660231590271 0.8068356513977051
vt 0.7879824042320251 0.4978708028793335
vt 0.7879824042320251 0.4978708028793335
vt 0.03196846321225166 0.28676581382751465
vt 0.7051352262496948 0.8244999051094055
vt 0.8219300508499146 0.7363727688789368
vt 0.7051352262496948 0.8683162927627563
vt 0.8219300508499146 0.692663848400116
vt 0.8119411468505859 0.4520103335380554
vt 0 0.2947062849998474
vt 0.7492509484291077 0.8371241688728333
vt 0.7985271215438843 0.739867091178894
vt 0.7866359353065491 0.8352347016334534
vt 0.7985537052154541 0.6996254324913025
vt 0.8246297240257263 0.4838317632675171
vt 0.10517507791519165 0.6267457008361816
vt 0.10517507791519165 0.6267457008361816
vt 0.10517507791519165 0.6267457008361816
vt 0.10517507791519165 0.6267457008361816
vt 0.0818585753440857 0.6142521500587463
vt 0.0818585753440857 0.6142521500587463
vt 0.11372818052768707 0.7605934143066406
vt 0.7219330668449402 0.6895900964736938
vt 0.086948923766613 0.7577320337295532
vt 0.6960359215736389 0.6895900964736938
vt 0.6960359215736389 0.6895900964736938
vt 0.7989780306816101 0.6238163709640503
vt 0.6840121746063232 0.7177495360374451
vt 0.6840121746063232 0.7177495360374451
vt 0.7985271215438843 0.6504706144332886
vt 0.7985271215438843 0.6504706144332886
vt 0.09523965418338776 0.6489442586898804
vt 0.09523965418338776 0.6489442586898804
vt 0.09523965418338776 0.6489442586898804
vt 0.09523965418338776 0.6489442586898804
vt 0.07535718381404877 0.6382384300231934
vt 0.07535718381404877 0.6382384300231934
vt 0.11150553077459335 0.7846153974533081
vt 0.11150553077459335 0.7846153974533081
vt 0.08472626656293869 0.7817540764808655
vt 0.08472626656293869 0.7817540764808655
vt 0.5892103314399719 0.891586184501648
vt 0.8218462467193604 0.6278162002563477
vt 0.5767359137535095 0.8677126169204712
vt 0.5767359137535095 0.8677126169204712
vt 0.8213953375816345 0.6503806114196777
vt 0.8213953375816345 0.6503806114196777
vt 0.08490084856748581 0.6716260313987732
vt 0.08490084856748581 0.6716260313987732
vt 0.08490084856748581 0.6716260313987732
vt 0.08490084856748581 0.6716260313987732
vt 0.06095804646611214 0.6586286425590515
vt 0.06095804646611214 0.6586286425590515
vt 0.12030722200870514 0.8107143640518188
vt 0.12030722200870514 0.8107143640518188
vt 0.0706573948264122 0.7844481468200684
vt 0.0706573948264122 0.7844481468200684
vt 0.5752629637718201 0.8921513557434082
vt 0.13370616734027863 0.8471114635467529
vt 0.5605735778808594 0.8678039908409119
vt 0.5605735778808594 0.8678039908409119
vt 0.15412285923957825 0.8557813763618469
vt 0.15412285923957825 0.8557813763618469
vt 0.06823914498090744 0.7087465524673462
vt 0.06823914498090744 0.7087465524673462
vt 0.06823914498090744 0.7087465524673462
vt 0.06823914498090744 0.7087465524673462
vt 0.03914515674114227 0.6930676698684692
vt 0.03914515674114227 0.6930676698684692
vt 0.12030722945928574 0.8524336218833923
vt 0.12030722945928574 0.8524336218833923
vt 0.06608302891254425 0.8343068957328796
vt 0.06608302891254425 0.8343068957328796
vt 0.13219845294952393 0.796753466129303
vt 0.13219845294952393 0.796753466129303
vt 0.16260747611522675 0.8031635284423828
vt 0.16260747611522675 0.8031635284423828
vt 0.16260747611522675 0.8031635284423828
vt 0.16260747611522675 0.8031635284423828
vt 0.055570490658283234 0.737651526927948
vt 0.055570490658283234 0.737651526927948
vt 0.3929451107978821 0.7835405468940735
vt 0.3929451107978821 0.7835405468940735
vt 0.0358840711414814 0.7224681377410889
vt 0.38413918018341064 0.7577320337295532
vt 0.09979714453220367 0.8780907988548279
vt 0.3569471538066864 0.7577320337295532
vt 0.07167892158031464 0.8750863671302795
vt 0.14824612438678741 0.7577320337295532
vt 0.34535902738571167 0.7835405468940735
vt 0.34535902738571167 0.7835405468940735
vt 0.1709650456905365 0.7584262490272522
vt 0.1709650456905365 0.7584262490272522
vt 0.2729324996471405 0.41284680366516113
vt 0.2729324996471405 0.41284680366516113
vt 0.9310162663459778 0.4025929570198059
vt 0.9310162663459778 0.4025929570198059
vt 0.22982005774974823 0.48110997676849365
vt 0.22982005774974823 0.48110997676849365
vt 0.944047212600708 0.4852859377861023
vt 0.944047212600708 0.4852859377861023
vt 0.9920244216918945 0.4012202024459839
vt 0.9920244216918945 0.4012202024459839
vt 0.5798826217651367 0.3133578300476074
vt 0.5798826217651367 0.3133578300476074
vt 0.997429370880127 0.4840848445892334
vt 0.997429370880127 0.4840848445892334
vt 0.5552142262458801 0.39202237129211426
vt 0.5552142262458801 0.39202237129211426
vt 0.3125031888484955 0.19102120399475098
vt 0.3125031888484955 0.19102120399475098
vt 0.8365208506584167 0.8037146329879761
vt 0.8365208506584167 0.8037146329879761
vt 0.9082795977592468 0.7332374453544617
vt 0.9082795977592468 0.7332374453544617
vt 0.6891044974327087 0.21035122871398926
vt 0.6891044974327087 0.21035122871398926
vt 0.349658727645874 0.2089570164680481
vt 0.349658727645874 0.2089570164680481
vt 0.9242085218429565 0.18485862016677856
vt 0.9242085218429565 0.18485862016677856
vt 0.980630099773407 0.25648069381713867
vt 0.980630099773407 0.25648069381713867
vt 0.6449242234230042 0.185899555683136
vt 0.6449242234230042 0.185899555683136
vt 0.9649502635002136 0.21326172351837158
vt 0.9649502635002136 0.21326172351837158
vt 0.6678138971328735 0.14950209856033325
vt 0.6678138971328735 0.14950209856033325
vt 0.3313160836696625 0.2646752595901489
vt 0.3313160836696625 0.2646752595901489
vt 0.9323949813842773 0.24304401874542236
vt 0.9323949813842773 0.24304401874542236
vt 0.9323949813842773 0.24304401874542236
vt 0.28862807154655457 0.24417823553085327
vt 0.28862807154655457 0.24417823553085327
vt 0.8441671133041382 0.7448163032531738
vt 0.8441671133041382 0.7448163032531738
vt 0.8441671133041382 0.7448163032531738
vt 0.8910426497459412 0.7794134616851807
vt 0.8910426497459412 0.7794134616851807
vt 0.70868980884552 0.16908389329910278
vt 0.70868980884552 0.16908389329910278
vt 0.9547256231307983 0.03788501024246216
vt 0.9547256231307983 0.03788501024246216
vt 0.548682451248169 0.8425236940383911
vt 0.7575933933258057 0
vt 0.39718934893608093 0.0689612627029419
vt 0.39718934893608093 0.0689612627029419
vt 0.9310056567192078 0.03841876983642578
vt 0.9310056567192078 0.03841876983642578
vt 0.8776588439941406 0.9533258676528931
vt 0.8776588439941406 0.9533258676528931
vt 0.8776588439941406 0.9533258676528931
vt 0.5221782326698303 0.847158670425415
vt 0.7814508080482483 0.013203918933868408
vt 0.3732352554798126 0.05661290884017944
vt 0.3732352554798126 0.05661290884017944
vt 0.8450474143028259 0.9524253010749817
vt 0.8450474143028259 0.9524253010749817
vt 0.9622244834899902 0.17417234182357788
vt 0.9622244834899902 0.17417234182357788
vt 0.6889671683311462 0.11670005321502686
vt 0.6889671683311462 0.11670005321502686
vt 0.8878271579742432 0.8185770511627197
vt 0.8878271579742432 0.8185770511627197
vt 0.7249595522880554 0.13393086194992065
vt 0.7249595522880554 0.13393086194992065
vt 0.3717542290687561 0.876351535320282
vt 0.3717542290687561 0.876351535320282
vt 0.9540031552314758 0.0010296106338500977
vt 0.4120924770832062 0.035663485527038574
vt 0.3717542290687561 0.9018842577934265
vt 0.9302831292152405 0.0015633702278137207
vt 0.34535902738571167 0.8714191913604736
vt 0.8767765164375305 0.9901319146156311
vt 0.34535902738571167 0.8714191913604736
vt 0.8767765164375305 0.9901319146156311
vt 0.38813838362693787 0.0233151912689209
vt 0.34535902738571167 0.9065266847610474
vt 0.8441651463508606 0.9892314076423645
vt 0.9228217601776123 0.9791266918182373
vt 0.5221782326698303 0.9013362526893616
vt 0.8099611401557922 0.7527454495429993
vt 1 0.012285113334655762
vt 0.548682451248169 0.8967012763023376
vt 0.8099611401557922 0.7816525101661682
vt 0.34535905718803406 0.8221662640571594
vt 0.9225276708602905 0.9913952946662903
vt 0.7985271215438843 0.7526843547821045
vt 0.3717542290687561 0.8270986080169678
vt 0.9997591972351074 0
vt 0.7985271215438843 0.7815914154052734
vt 0.20124241709709167 0.5903009176254272
vt 0.20124241709709167 0.5903009176254272
vt 0.20124241709709167 0.5903009176254272
vt 0.20124241709709167 0.5903009176254272
vt 0.9267902374267578 0.5945934653282166
vt 0.5954041481018066 0.8297064304351807
vt 1 0.5929461121559143
vt 0.5221782922744751 0.8297064304351807
vt 0.4914984703063965 0.4812382459640503
vt 0.4914984703063965 0.4812382459640503
vt 0.4914984703063965 0.4812382459640503
vt 0.4914984703063965 0.4812382459640503
vt 0.15081195533275604 0.636860191822052
vt 0.15081195533275604 0.636860191822052
vt 0.15081195533275604 0.636860191822052
vt 0.727106511592865 0.7664631605148315
vt 0.727106511592865 0.7664631605148315
vt 0.685999870300293 0.7664631605148315
vt 0.685999870300293 0.7664631605148315
vt 0.685999870300293 0.7664631605148315
vt 0.4840603768825531 0.5524268746376038
vt 0.4840603768825531 0.5524268746376038
vt 0.2240472137928009 0.6246761679649353
vt 0.2240472137928009 0.6246761679649353
vt 0.6142191290855408 0.826894998550415
vt 0.6142191290855408 0.826894998550415
vt 0.6550233960151672 0.8230401873588562
vt 0.6550233960151672 0.8230401873588562
vt 0.44973990321159363 0.4819561839103699
vt 0.44973990321159363 0.4819561839103699
vt 0.19197362661361694 0.6490355134010315
vt 0.6172991394996643 0.8653637766838074
vt 0.7223536372184753 0.8116826415061951
vt 0.6543040871620178 0.8618678450584412
vt 0.6866055727005005 0.8116826415061951
vt 0.4503166377544403 0.524198591709137
vt 0.2688785493373871 0.5550839900970459
vt 0.2688785493373871 0.5550839900970459
vt 0.5898225903511047 0.7618299126625061
vt 0.5898225903511047 0.7618299126625061
vt 0.5478272438049316 0.7518668174743652
vt 0.5478272438049316 0.7518668174743652
vt 0.5478272438049316 0.7518668174743652
vt 0.47253167629241943 0.3898296356201172
vt 0.47253167629241943 0.3898296356201172
vt 0.28862816095352173 0.5916587114334106
vt 0.28862816095352173 0.5916587114334106
vt 0.6081970930099487 0.7632336020469666
vt 0.6081970930099487 0.7632336020469666
vt 0.29038581252098083 0.5415774583816528
vt 0.29038581252098083 0.5415774583816528
vt 0.5867229104042053 0.7383316159248352
vt 0.5867229104042053 0.7383316159248352
vt 0.3099121153354645 0.5777857303619385
vt 0.3099121153354645 0.5777857303619385
vt 0.6072953343391418 0.7396203279495239
vt 0.6072953343391418 0.7396203279495239
vt 0.6454810500144958 0.7495373487472534
vt 0.6454810500144958 0.7495373487472534
vt 0.6454810500144958 0.7495373487472534
vt 0.4336128830909729 0.3944222927093506
vt 0.4336128830909729 0.3944222927093506
vt 0.3658514618873596 0.508911669254303
vt 0.3658514618873596 0.508911669254303
vt 0.5632041096687317 0.66899573802948
vt 0.5632041096687317 0.66899573802948
vt 0.5380123257637024 0.6724064946174622
vt 0.5380123257637024 0.6724064946174622
vt 0.4514957666397095 0.2947041988372803
vt 0.4514957666397095 0.2947041988372803
vt 0.37505626678466797 0.5266416072845459
vt 0.37505626678466797 0.5266416072845459
vt 0.6245403289794922 0.6588347554206848
vt 0.6245403289794922 0.6588347554206848
vt 0.6482162475585938 0.6597859263420105
vt 0.6482162475585938 0.6597859263420105
vt 0.432605117559433 0.2969999313354492
vt 0.432605117559433 0.2969999313354492
vt 0.3980374038219452 0.4773310422897339
vt 0.5657280683517456 0.6238164305686951
vt 0.7662816047668457 0.8531426191329956
vt 0.5254914164543152 0.6302968859672546
vt 0.7662816047668457 0.8968234658241272
vt 0.4565156400203705 0.2511122226715088
vt 0.41209253668785095 0.5092301964759827
vt 0.6176376938819885 0.6238164305686951
vt 0.7389976382255554 0.8499414920806885
vt 0.6550233364105225 0.6263414025306702
vt 0.7390104532241821 0.8901563286781311
vt 0.42398372292518616 0.2573734521865845
vt 0.1289055198431015 0.6387434601783752
vt 0.1289055198431015 0.6387434601783752
vt 0.04769337922334671 0.8757773637771606
vt 0.7219330668449402 0.7459088563919067
vt 0.02091900072991848 0.8786908388137817
vt 0.6960359215736389 0.7459088563919067
vt 0.6960359215736389 0.7459088563919067
vt 0.7989780306816101 0.6798465251922607
vt 0.11553598940372467 0.6591543555259705
vt 0.11553598940372467 0.6591543555259705
vt 0.04537609964609146 0.8509774208068848
vt 0.04537609964609146 0.8509774208068848
vt 0.018601728603243828 0.8538908958435059
vt 0.018601728603243828 0.8538908958435059
vt 0.5892103314399719 0.8436980843544006
vt 0.8218462467193604 0.6756667494773865
vt 0.10946448147296906 0.6838797330856323
vt 0.10946448147296906 0.6838797330856323
vt 0.054191816598176956 0.8257433772087097
vt 0.054191816598176956 0.8257433772087097
vt 0.004538554698228836 0.8513790965080261
vt 0.004538554698228836 0.8513790965080261
vt 0.5752629637718201 0.8425237536430359
vt 0.17900356650352478 0.8557813763618469
vt 0.09795387834310532 0.7236818671226501
vt 0.09795387834310532 0.7236818671226501
vt 0.054191816598176956 0.7851026654243469
vt 0.054191816598176956 0.7851026654243469
vt 3.015670912986934e-8 0.803350031375885
vt 3.015670912986934e-8 0.803350031375885
vt 0.19617518782615662 0.8089986443519592
vt 0.19617518782615662 0.8089986443519592
vt 0.07900331169366837 0.7449147701263428
vt 0.38413918018341064 0.8093490600585938
vt 0.0335187129676342 0.7577320337295532
vt 0.3569471538066864 0.8093490600585938
vt 0.0054056355729699135 0.7607913017272949
vt 0.19515462219715118 0.7667103409767151
vn -0.17827544071402507 -0.044284703740170586 0.982983586970233
vn -0.1937780488566229 0.1160031420584483 0.9741628913143263
vn -0.998948283698984 -0.03920961905654047 0.023768303858185916
vn -0.9889363570251818 0.14834042521767665 -3.3849847546416444e-8
vn -0.1937780488566229 0.1160031420584483 0.9741628913143263
vn -0.21036139180079214 -0.1859653215596603 0.9597734024324938
vn -0.9842468195406138 -0.17679988185568873 -3.3689331525554054e-8
vn -0.9889363570251818 0.14834042521767665 -3.3849847546416444e-8
vn -0.998948283698984 -0.03920961905654047 0.023768303858185916
vn -0.9889363570251818 0.14834042521767665 -3.3849847546416444e-8
vn -0.2301751423295419 -0.04735027420418876 -0.9719965819828602
vn -0.18699963596376912 -0.0755729750765794 -0.9794487539363622
vn -0.9842468195406138 -0.17679988185568873 -3.3689331525554054e-8
vn -0.9889363570251818 0.14834042521767665 -3.3849847546416444e-8
vn -0.29583138049766666 -0.06891461085786975 -0.9527510539081828
vn -0.2301751423295419 -0.04735027420418876 -0.9719965819828602
vn -0.17827544071402507 -0.044284703740170586 0.982983586970233
vn 0.1782753734218388 -0.04428470374017057 0.9829835991744467
vn -0.1937780488566229 0.1160031420584483 0.9741628913143263
vn 0.19377798216827566 0.1160031420584483 0.9741629045798035
vn -0.9950637454299259 -0.09839425373943562 -0.01291175286423539
vn 0.9950637462898934 -0.09839425373706925 -0.01291168660741171
vn -0.1937780488566229 0.1160031420584483 0.9741628913143263
vn 0.19377798216827566 0.1160031420584483 0.9741629045798035
vn -0.21036139180079214 -0.1859653215596603 0.9597734024324938
vn 0.2103613260975073 -0.1859653215596603 0.9597734168332179
vn -0.9950637454299259 -0.09839425373943562 -0.01291175286423539
vn 0.9950637462898934 -0.09839425373706925 -0.01291168660741171
vn -0.2301751423295419 -0.04735027420418876 -0.9719965819828602
vn 0.23017520886958892 -0.04735027420418876 -0.9719965662257399
vn -0.18699963596376912 -0.0755729750765794 -0.9794487539363622
vn 0.18699968873917908 -0.07557296787913607 -0.9794487444156481
vn -0.29583138049766666 -0.06891461085786975 -0.9527510539081828
vn 0.29583144572022085 -0.06891461085786975 -0.9527510336564282
vn -0.2301751423295419 -0.04735027420418876 -0.9719965819828602
vn 0.23017520886958892 -0.04735027420418876 -0.9719965662257399
vn -0.16402289915725313 -0.08562883554525556 0.9827330212602065
vn -0.16493570956806974 0.10966931684524998 0.9801881720628819
vn 0.9999013237183781 -0.00444945402441557 0.013324608253880758
vn 0.9999706814679078 -0.004710684519219662 0.0060370237674293075
vn 0.9995570629706552 0.029354912324302995 -0.004895609043864878
vn 0.9950637462898934 -0.09839425373706925 -0.01291168660741171
vn -0.16045858636996607 -0.3512772655046505 -0.9224192782025575
vn -0.18699963596376912 -0.0755729750765794 -0.9794487539363622
vn -0.16402289915725313 -0.08562883554525556 0.9827330212602065
vn -0.16493570956806974 0.10966931684524998 0.9801881720628819
vn -0.9928617801410216 -0.11847284744188469 -0.013772071529502142
vn -0.9953123020423382 -0.09426916394874453 -0.0216043081718838
vn -0.998948283698984 -0.03920961905654047 0.023768303858185916
vn -0.9895297004579386 -0.14236316376870287 0.023742399065548703
vn -0.16045858636996607 -0.3512772655046505 -0.9224192782025575
vn -0.18699963596376912 -0.0755729750765794 -0.9794487539363622
vn -0.9895297004579386 -0.14236316376870287 0.023742399065548703
vn -0.9928617801410216 -0.11847284744188469 -0.013772071529502142
vn -0.16045858636996607 -0.3512772655046505 -0.9224192782025575
vn -0.16429524863766792 -0.06683767774438465 -0.9841441947747417
vn -0.17827544071402507 -0.044284703740170586 0.982983586970233
vn -0.16493570956806974 0.10966931684524998 0.9801881720628819
vn -0.998948283698984 -0.03920961905654047 0.023768303858185916
vn -0.9895297004579386 -0.14236316376870287 0.023742399065548703
vn -0.9928617801410216 -0.11847284744188469 -0.013772071529502142
vn -0.17827544071402507 -0.044284703740170586 0.982983586970233
vn -0.16493570956806974 0.10966931684524998 0.9801881720628819
vn 0.9999013237183781 -0.00444945402441557 0.013324608253880758
vn 0.9995570629706552 0.029354912324302995 -0.004895609043864878
vn 0.9950637462898934 -0.09839425373706925 -0.01291168660741171
vn 0.9999013237183781 -0.00444945402441557 0.013324608253880758
vn 0.9995570629706552 0.029354912324302995 -0.004895609043864878
vn -0.16045858636996607 -0.3512772655046505 -0.9224192782025575
vn -0.16429524863766792 -0.06683767774438465 -0.9841441947747417
vn -0.9999999999999993 0 -3.422853989132335e-8
vn -0.9953123020423382 -0.09426916394874453 -0.0216043081718838
vn -0.07249293088619811 0.8920736923455799 -0.446037332962671
vn -0.16827096907855196 -0.0525746774179148 -0.9843377389187956
vn -0.165525760486082 0 0.9862054667337352
vn -0.16402289915725313 -0.08562883554525556 0.9827330212602065
vn -0.9999999999999993 0 -3.422853989132335e-8
vn -0.9953123020423382 -0.09426916394874453 -0.0216043081718838
vn 0.9999706814679078 -0.004710684519219662 0.0060370237674293075
vn 0.999999999999997 0 7.778082700138346e-8
vn 0.9999999999999993 0 3.422853989132335e-8
vn -0.07249293088619811 0.8920736923455799 -0.446037332962671
vn -0.16827096907855196 -0.0525746774179148 -0.9843377389187956
vn -0.165525760486082 0 0.9862054667337352
vn -0.16402289915725313 -0.08562883554525556 0.9827330212602065
vn 0.9999706814679078 -0.004710684519219662 0.0060370237674293075
vn 0.999999999999997 0 7.778082700138346e-8
vn -0.9928617801410216 -0.11847284744188469 -0.013772071529502142
vn -0.9953123020423382 -0.09426916394874453 -0.0216043081718838
vn -0.16429524863766792 -0.06683767774438465 -0.9841441947747417
vn -0.16827096907855196 -0.0525746774179148 -0.9843377389187956
vn 0.9999013237183781 -0.00444945402441557 0.013324608253880758
vn 0.9999706814679078 -0.004710684519219662 0.0060370237674293075
vn -0.16429524863766792 -0.06683767774438465 -0.9841441947747417
vn -0.16827096907855196 -0.0525746774179148 -0.9843377389187956
vn -0.0026575448601411926 -0.9999964687211574 7.291233098884349e-7
vn -0.002657115597922418 -0.9999964698621188 -9.094918723934503e-11
vn -0.9999999999999993 0 -3.422853989132335e-8
vn -0.165525760486082 0 0.9862054667337352
vn -0.0026575448601411926 -0.9999964687211574 7.291233098884349e-7
vn -0.9999999999999993 0 -3.422853989132335e-8
vn -0.0026575448601411926 -0.9999964687211574 7.291233098884349e-7
vn 0.999999999999997 0 7.778082700138346e-8
vn -0.002657115597922418 -0.9999964698621188 -9.094918723934503e-11
vn 0.9999999999999993 0 3.422853989132335e-8
vn -0.165525760486082 0 0.9862054667337352
vn -0.0026575448601411926 -0.9999964687211574 7.291233098884349e-7
vn 0.999999999999997 0 7.778082700138346e-8
vn 0.9999999999999993 0 3.422853989132335e-8
vn -0.07249293088619811 0.8920736923455799 -0.446037332962671
vn -0.1655259925610774 0 -0.9862054277819962
vn -0.9999999999999993 0 -3.422853989132335e-8
vn -0.07249293088619811 0.8920736923455799 -0.446037332962671
vn -0.1655259925610774 0 -0.9862054277819962
vn -0.002657115597922418 -0.9999964698621188 -9.094918723934503e-11
vn 0.9999999999999993 0 3.422853989132335e-8
vn -0.1655259925610774 0 -0.9862054277819962
vn -0.002657115597922418 -0.9999964698621188 -9.094918723934503e-11
vn -0.9999999999999993 0 -3.422853989132335e-8
vn -0.1655259925610774 0 -0.9862054277819962
vn -0.202948398780118 0.10523979345886446 0.9735176081126224
vn 0.202948332135945 0.10523979345886449 0.9735176220058751
vn -0.21036139180079214 -0.1859653215596603 0.9597734024324938
vn 0.2103613260975073 -0.1859653215596603 0.9597734168332179
vn -0.0836116947628929 0.02744286303790505 0.9961204614739926
vn -0.10804294679286928 0.09145778432191483 0.9899303992378654
vn -0.202948398780118 0.10523979345886446 0.9735176081126224
vn -0.21036139180079214 -0.1859653215596603 0.9597734024324938
vn -0.9842468195406138 -0.17679988185568873 -3.3689331525554054e-8
vn 0.7822629662407714 -0.6229480103605004 -0.0006542446665199738
vn -0.9842468195406138 -0.17679988185568873 -3.3689331525554054e-8
vn 0.7822629662407714 -0.6229480103605004 -0.0006542446665199738
vn -0.30940671437880646 0.4582578257150045 -0.8332270100448428
vn -0.26502156457555615 0.4069426594008756 -0.8741631668456795
vn -0.3594962316741785 0.07938276581218784 -0.9297638602914574
vn -0.29583138049766666 -0.06891461085786975 -0.9527510539081828
vn -0.30940671437880646 0.4582578257150045 -0.8332270100448428
vn 0.30940677141909356 0.4582578257150045 -0.8332269888637607
vn -0.29583138049766666 -0.06891461085786975 -0.9527510539081828
vn 0.29583144572022085 -0.06891461085786975 -0.9527510336564282
vn -0.202948398780118 0.10523979345886446 0.9735176081126224
vn 0.202948332135945 0.10523979345886449 0.9735176220058751
vn -0.1772932535454908 0.7513702532056831 0.6356176876431947
vn 0.17729321003295967 0.7513702532056831 0.6356176997801716
vn -0.10804294679286928 0.09145778432191483 0.9899303992378654
vn -0.202948398780118 0.10523979345886446 0.9735176081126224
vn -0.1772932535454908 0.7513702532056831 0.6356176876431947
vn -0.5144954647605178 0.8574931001126824 -1.761042853946034e-8
vn -0.17888525250486118 0.9838699438626388 -6.122981001332095e-9
vn -0.5144954647605178 0.8574931001126824 -1.761042853946034e-8
vn -0.17888525250486118 0.9838699438626388 -6.122981001332095e-9
vn -0.26312436173197695 0.7705649990985842 -0.5805128357128191
vn -0.30940671437880646 0.4582578257150045 -0.8332270100448428
vn -0.26502156457555615 0.4069426594008756 -0.8741631668456795
vn -0.26312436173197695 0.7705649990985842 -0.5805128357128191
vn 0.26312440147218985 0.7705649990985842 -0.5805128177000923
vn -0.30940671437880646 0.4582578257150045 -0.8332270100448428
vn 0.30940677141909356 0.4582578257150045 -0.8332269888637607
vn -0.0836116947628929 0.02744286303790505 0.9961204614739926
vn -0.10804294679286928 0.09145778432191483 0.9899303992378654
vn -0.8741573740439099 0.48564275491831954 -2.992113054875645e-8
vn -0.7801653923923695 0.6255654077963873 -0.00314341880761263
vn -0.8741573740439099 0.48564275491831954 -2.992113054875645e-8
vn -0.7801653923923695 0.6255654077963873 -0.00314341880761263
vn -0.26502156457555615 0.4069426594008756 -0.8741631668456795
vn -0.3594962316741785 0.07938276581218784 -0.9297638602914574
vn -0.10804294679286928 0.09145778432191483 0.9899303992378654
vn -0.8741573740439099 0.48564275491831954 -2.992113054875645e-8
vn -0.17888525250486118 0.9838699438626388 -6.122981001332095e-9
vn -0.8741573740439099 0.48564275491831954 -2.992113054875645e-8
vn -0.17888525250486118 0.9838699438626388 -6.122981001332095e-9
vn -0.26502156457555615 0.4069426594008756 -0.8741631668456795
vn -0.02632949820360515 -0.0801716080586574 0.9964332746278776
vn -0.0836116947628929 0.02744286303790505 0.9961204614739926
vn 0.7822629662407714 -0.6229480103605004 -0.0006542446665199738
vn 0.8296170586014444 -0.5578602661869424 -0.022966486177069714
vn 0.7822629662407714 -0.6229480103605004 -0.0006542446665199738
vn 0.8296170586014444 -0.5578602661869424 -0.022966486177069714
vn 0.7482585358926409 -0.660308343813578 -0.0640472837360904
vn -0.3594962316741785 0.07938276581218784 -0.9297638602914574
vn -0.038068226813692055 0.15810549880068095 -0.9866881277061406
vn -0.02632949820360515 -0.0801716080586574 0.9964332746278776
vn -0.0836116947628929 0.02744286303790505 0.9961204614739926
vn -0.8381323127366013 0.5450052827683407 0.02243809487003891
vn -0.7801653923923695 0.6255654077963873 -0.00314341880761263
vn -0.02632949820360515 -0.0801716080586574 0.9964332746278776
vn -0.10957683159590786 -0.2695193124489194 0.9567404340752323
vn 0.8296170586014444 -0.5578602661869424 -0.022966486177069714
vn 0.7482585358926409 -0.660308343813578 -0.0640472837360904
vn -0.02632949820360515 -0.0801716080586574 0.9964332746278776
vn -0.10957683159590786 -0.2695193124489194 0.9567404340752323
vn -0.8381323127366013 0.5450052827683407 0.02243809487003891
vn -0.878418953400088 0.4778314612936072 0.007565507617460505
vn -0.8381323127366013 0.5450052827683407 0.02243809487003891
vn -0.878418953400088 0.4778314612936072 0.007565507617460505
vn -0.7801653923923695 0.6255654077963873 -0.00314341880761263
vn -0.3594962316741785 0.07938276581218784 -0.9297638602914574
vn -0.038068226813692055 0.15810549880068095 -0.9866881277061406
vn 0.13181965814667154 0.013692055254708619 0.9911791489680345
vn -0.10957683159590786 -0.2695193124489194 0.9567404340752323
vn 0.926899157540605 -0.3749081229322664 -0.01737386283821514
vn 0.7482585358926409 -0.660308343813578 -0.0640472837360904
vn 0.926899157540605 -0.3749081229322664 -0.01737386283821514
vn 0.7482585358926409 -0.660308343813578 -0.0640472837360904
vn 0.004024753581040626 0.3130717621107906 -0.9497209448714166
vn -0.038068226813692055 0.15810549880068095 -0.9866881277061406
vn 0.13181965814667154 0.013692055254708619 0.9911791489680345
vn -0.10957683159590786 -0.2695193124489194 0.9567404340752323
vn -0.7514194383893394 0.6568047310198708 0.06305848809291825
vn -0.878418953400088 0.4778314612936072 0.007565507617460505
vn -0.7514194383893394 0.6568047310198708 0.06305848809291825
vn -0.878418953400088 0.4778314612936072 0.007565507617460505
vn 0.004024753581040626 0.3130717621107906 -0.9497209448714166
vn -0.038068226813692055 0.15810549880068095 -0.9866881277061406
vn 0.13181965814667154 0.013692055254708619 0.9911791489680345
vn 0.926899157540605 -0.3749081229322664 -0.01737386283821514
vn -0.6299851401224 -0.7643574155496208 -0.13739164646827806
vn 0.926899157540605 -0.3749081229322664 -0.01737386283821514
vn -0.6299851401224 -0.7643574155496208 -0.13739164646827806
vn 0.004024753581040626 0.3130717621107906 -0.9497209448714166
vn 0.13181965814667154 0.013692055254708619 0.9911791489680345
vn -0.7514194383893394 0.6568047310198708 0.06305848809291825
vn -0.6299851401224 -0.7643574155496208 -0.13739164646827806
vn -0.7514194383893394 0.6568047310198708 0.06305848809291825
vn -0.6299851401224 -0.7643574155496208 -0.13739164646827806
vn 0.004024753581040626 0.3130717621107906 -0.9497209448714166
vn -0.3025004727581056 0.02520836134000442 0.9528158282163842
vn 0.30250040753111573 0.02520836134000442 0.9528158489246811
vn -0.1772932535454908 0.7513702532056831 0.6356176876431947
vn 0.17729321003295967 0.7513702532056831 0.6356176997801716
vn -0.3025004727581056 0.02520836134000442 0.9528158282163842
vn -0.1772932535454908 0.7513702532056831 0.6356176876431947
vn -0.9863939305521227 0.1643989469854747 -3.3762824000462585e-8
vn -0.5144954647605178 0.8574931001126824 -1.761042853946034e-8
vn -0.9863939305521227 0.1643989469854747 -3.3762824000462585e-8
vn -0.5144954647605178 0.8574931001126824 -1.761042853946034e-8
vn -0.26312436173197695 0.7705649990985842 -0.5805128357128191
vn -0.45815187183866113 0.03817932088892298 -0.8880536029920669
vn -0.26312436173197695 0.7705649990985842 -0.5805128357128191
vn 0.26312440147218985 0.7705649990985842 -0.5805128177000923
vn 0.45815207435610805 0.03817933518277511 -0.8880534978976191
vn -0.45815187183866113 0.03817932088892298 -0.8880536029920669
vn -0.3025004727581056 0.02520836134000442 0.9528158282163842
vn 0.30250040753111573 0.02520836134000442 0.9528158489246811
vn -0.31608377516703684 -0.49427042068770327 0.8098072599757024
vn 0.316083719729996 -0.4942704206877034 0.8098072816138728
vn -0.3025004727581056 0.02520836134000442 0.9528158282163842
vn -0.31608377516703684 -0.49427042068770327 0.8098072599757024
vn -0.9799173504325874 -0.19940235779516224 0.0008282674133529873
vn -0.9863939305521227 0.1643989469854747 -3.3762824000462585e-8
vn -0.9799173504325874 -0.19940235779516224 0.0008282674133529873
vn -0.9863939305521227 0.1643989469854747 -3.3762824000462585e-8
vn -0.15515174494575198 -0.9804905793724528 -0.12069034676460234
vn -0.45815187183866113 0.03817932088892298 -0.8880536029920669
vn 0.15515175418445978 -0.9804905855441414 -0.12069028474898823
vn -0.15515174494575198 -0.9804905793724528 -0.12069034676460234
vn 0.45815207435610805 0.03817933518277511 -0.8880534978976191
vn -0.45815187183866113 0.03817932088892298 -0.8880536029920669
vn -0.3583885886721427 -0.11946878648627 0.9258967699290713
vn 0.3583885252879528 -0.11946878648627 0.9258967944633054
vn -0.31608377516703684 -0.49427042068770327 0.8098072599757024
vn 0.316083719729996 -0.4942704206877034 0.8098072816138728
vn -0.3583885886721427 -0.11946878648627 0.9258967699290713
vn -0.31608377516703684 -0.49427042068770327 0.8098072599757024
vn -0.9836138275670022 -0.17956968155259412 0.01608003999036055
vn -0.9799173504325874 -0.19940235779516224 0.0008282674133529873
vn -0.9836138275670022 -0.17956968155259412 0.01608003999036055
vn -0.9799173504325874 -0.19940235779516224 0.0008282674133529873
vn -0.15515174494575198 -0.9804905793724528 -0.12069034676460234
vn -0.4738884084959359 -0.04738883729117236 -0.8793088617734839
vn 0.15515175418445978 -0.9804905855441414 -0.12069028474898823
vn -0.15515174494575198 -0.9804905793724528 -0.12069034676460234
vn 0.4738885626892641 -0.04738884520089801 -0.8793087782473396
vn -0.4738884084959359 -0.04738883729117236 -0.8793088617734839
vn -0.3583885886721427 -0.11946878648627 0.9258967699290713
vn 0.3583885252879528 -0.11946878648627 0.9258967944633054
vn -0.3025267545674544 0.5726288583798299 0.7619539049847412
vn 0.3025267024063144 0.5726288583798299 0.7619539256948376
vn -0.3583885886721427 -0.11946878648627 0.9258967699290713
vn -0.3025267545674544 0.5726288583798299 0.7619539049847412
vn -0.9836138275670022 -0.17956968155259412 0.01608003999036055
vn -0.9663090252590445 0.25502297394145385 -0.034787216976529374
vn -0.9836138275670022 -0.17956968155259412 0.01608003999036055
vn -0.9663090252590445 0.25502297394145385 -0.034787216976529374
vn -0.44227122778739303 0.2668982249738417 -0.85624850281752
vn -0.4738884084959359 -0.04738883729117236 -0.8793088617734839
vn -0.44227122778739303 0.2668982249738417 -0.85624850281752
vn 0.4422712398588668 0.266898214870229 -0.8562484997316995
vn 0.4738885626892641 -0.04738884520089801 -0.8793087782473396
vn -0.4738884084959359 -0.04738883729117236 -0.8793088617734839
vn -0.3025267545674544 0.5726288583798299 0.7619539049847412
vn 0.3025267024063144 0.5726288583798299 0.7619539256948376
vn -0.15730010564188454 0.9875508476858555 -5.384152940872625e-9
vn 0.15730010564188454 0.9875508476858555 5.384152940872625e-9
vn -0.3025267545674544 0.5726288583798299 0.7619539049847412
vn -0.15730010564188454 0.9875508476858555 -5.384152940872625e-9
vn -0.9663090252590445 0.25502297394145385 -0.034787216976529374
vn -0.15730010564188454 0.9875508476858555 -5.384152940872625e-9
vn -0.9663090252590445 0.25502297394145385 -0.034787216976529374
vn -0.44227122778739303 0.2668982249738417 -0.85624850281752
vn -0.15730010564188454 0.9875508476858555 -5.384152940872625e-9
vn 0.15730010564188454 0.9875508476858555 5.384152940872625e-9
vn -0.44227122778739303 0.2668982249738417 -0.85624850281752
vn 0.4422712398588668 0.266898214870229 -0.8562484997316995
vn 0.1782753734218388 -0.04428470374017057 0.9829835991744467
vn 0.19377798216827566 0.1160031420584483 0.9741629045798035
vn 0.998948281881734 -0.03920962277436763 0.02376837410138921
vn 0.9889363548391925 0.14834043979094014 3.3849847471593226e-8
vn 0.19377798216827566 0.1160031420584483 0.9741629045798035
vn 0.2103613260975073 -0.1859653215596603 0.9597734168332179
vn 0.9842468169475921 -0.17679989629106665 3.3689331436798706e-8
vn 0.9889363548391925 0.14834043979094014 3.3849847471593226e-8
vn 0.998948281881734 -0.03920962277436763 0.02376837410138921
vn 0.9889363548391925 0.14834043979094014 3.3849847471593226e-8
vn 0.23017520886958892 -0.04735027420418876 -0.9719965662257399
vn 0.18699968873917908 -0.07557296787913607 -0.9794487444156481
vn 0.9842468169475921 -0.17679989629106665 3.3689331436798706e-8
vn 0.9889363548391925 0.14834043979094014 3.3849847471593226e-8
vn 0.29583144572022085 -0.06891461085786975 -0.9527510336564282
vn 0.23017520886958892 -0.04735027420418876 -0.9719965662257399
vn 0.1640228028816835 -0.08562883596383174 0.9827330372925883
vn 0.1649356711892977 0.10966933102811413 0.9801881769339915
vn -0.9999013245953646 -0.004449456352565667 0.0133245416657325
vn -0.999970681874602 -0.004710685916172521 0.006036955312316844
vn -0.9995570626355137 0.029354912324302995 -0.004895677470622474
vn -0.9950637454299259 -0.09839425373943562 -0.01291175286423539
vn 0.16045864783627375 -0.3512772916294939 -0.9224192575613339
vn 0.18699968873917908 -0.07557296787913607 -0.9794487444156481
vn 0.1640228028816835 -0.08562883596383174 0.9827330372925883
vn 0.1649356711892977 0.10966933102811413 0.9801881769339915
vn 0.9928617788045102 -0.11847286884509156 -0.013771983762606195
vn 0.9953123049194389 -0.09426914918000391 -0.02160424006605799
vn 0.998948281881734 -0.03920962277436763 0.02376837410138921
vn 0.989529698832601 -0.14236316376870287 0.0237424668058623
vn 0.16045864783627375 -0.3512772916294939 -0.9224192575613339
vn 0.18699968873917908 -0.07557296787913607 -0.9794487444156481
vn 0.989529698832601 -0.14236316376870287 0.0237424668058623
vn 0.9928617788045102 -0.11847286884509156 -0.013771983762606195
vn 0.16045864783627375 -0.3512772916294939 -0.9224192575613339
vn 0.16429531592748947 -0.06683768516168165 -0.9841441830374826
vn 0.1782753734218388 -0.04428470374017057 0.9829835991744467
vn 0.1649356711892977 0.10966933102811413 0.9801881769339915
vn 0.998948281881734 -0.03920962277436763 0.02376837410138921
vn 0.989529698832601 -0.14236316376870287 0.0237424668058623
vn 0.9928617788045102 -0.11847286884509156 -0.013771983762606195
vn 0.1782753734218388 -0.04428470374017057 0.9829835991744467
vn 0.1649356711892977 0.10966933102811413 0.9801881769339915
vn -0.9999013245953646 -0.004449456352565667 0.0133245416657325
vn -0.9995570626355137 0.029354912324302995 -0.004895677470622474
vn -0.9950637454299259 -0.09839425373943562 -0.01291175286423539
vn -0.9999013245953646 -0.004449456352565667 0.0133245416657325
vn -0.9995570626355137 0.029354912324302995 -0.004895677470622474
vn 0.16045864783627375 -0.3512772916294939 -0.9224192575613339
vn 0.16429531592748947 -0.06683768516168165 -0.9841441830374826
vn 0.9999999999999993 0 3.422853989132335e-8
vn 0.9953123049194389 -0.09426914918000391 -0.02160424006605799
vn 0.07249294659775976 0.8920736933092237 -0.4460373284818386
vn 0.16827102201716296 -0.052574673834748904 -0.9843377300604041
vn 0.16552572195910942 0 0.9862054732001418
vn 0.1640228028816835 -0.08562883596383174 0.9827330372925883
vn 0.9999999999999993 0 3.422853989132335e-8
vn 0.9953123049194389 -0.09426914918000391 -0.02160424006605799
vn -0.999970681874602 -0.004710685916172521 0.006036955312316844
vn -0.9999999999999999 0 9.323747218736826e-9
vn -0.9999999999999993 0 -3.422853989132335e-8
vn 0.07249294659775976 0.8920736933092237 -0.4460373284818386
vn 0.16827102201716296 -0.052574673834748904 -0.9843377300604041
vn 0.16552572195910942 0 0.9862054732001418
vn 0.1640228028816835 -0.08562883596383174 0.9827330372925883
vn -0.999970681874602 -0.004710685916172521 0.006036955312316844
vn -0.9999999999999999 0 9.323747218736826e-9
vn 0.9928617788045102 -0.11847286884509156 -0.013771983762606195
vn 0.9953123049194389 -0.09426914918000391 -0.02160424006605799
vn 0.16429531592748947 -0.06683768516168165 -0.9841441830374826
vn 0.16827102201716296 -0.052574673834748904 -0.9843377300604041
vn -0.9999013245953646 -0.004449456352565667 0.0133245416657325
vn -0.999970681874602 -0.004710685916172521 0.006036955312316844
vn 0.16429531592748947 -0.06683768516168165 -0.9841441830374826
vn 0.16827102201716296 -0.052574673834748904 -0.9843377300604041
vn 0.002657544860064464 -0.9999964687203701 0.0000014513970314938508
vn 0.002657115597922418 -0.9999964698621188 9.094918723934503e-11
vn 0.9999999999999993 0 3.422853989132335e-8
vn 0.16552572195910942 0 0.9862054732001418
vn 0.002657544860064464 -0.9999964687203701 0.0000014513970314938508
vn 0.9999999999999993 0 3.422853989132335e-8
vn 0.002657544860064464 -0.9999964687203701 0.0000014513970314938508
vn -0.9999999999999999 0 9.323747218736826e-9
vn 0.002657115597922418 -0.9999964698621188 9.094918723934503e-11
vn -0.9999999999999993 0 -3.422853989132335e-8
vn 0.16552572195910942 0 0.9862054732001418
vn 0.002657544860064464 -0.9999964687203701 0.0000014513970314938508
vn -0.9999999999999999 0 9.323747218736826e-9
vn -0.9999999999999993 0 -3.422853989132335e-8
vn 0.07249294659775976 0.8920736933092237 -0.4460373284818386
vn 0.16552595862361844 0 -0.9862054334781025
vn 0.9999999999999993 0 3.422853989132335e-8
vn 0.07249294659775976 0.8920736933092237 -0.4460373284818386
vn 0.16552595862361844 0 -0.9862054334781025
vn 0.002657115597922418 -0.9999964698621188 9.094918723934503e-11
vn -0.9999999999999993 0 -3.422853989132335e-8
vn 0.16552595862361844 0 -0.9862054334781025
vn 0.002657115597922418 -0.9999964698621188 9.094918723934503e-11
vn 0.9999999999999993 0 3.422853989132335e-8
vn 0.16552595862361844 0 -0.9862054334781025
vn 0.0836116265713948 0.02744286303790504 0.9961204671978026
vn 0.10804286444515318 0.09145776969263851 0.9899304095770242
vn 0.202948332135945 0.10523979345886449 0.9735176220058751
vn 0.2103613260975073 -0.1859653215596603 0.9597734168332179
vn 0.9842468169475921 -0.17679989629106665 3.3689331436798706e-8
vn -0.7822629371500621 -0.6229480468346904 -0.0006542982518714134
vn 0.9842468169475921 -0.17679989629106665 3.3689331436798706e-8
vn -0.7822629371500621 -0.6229480468346904 -0.0006542982518714134
vn 0.30940677141909356 0.4582578257150045 -0.8332269888637607
vn 0.26502164891318675 0.4069426810537262 -0.8741631311969986
vn 0.35949626915973043 0.07938277406631099 -0.9297638450928126
vn 0.29583144572022085 -0.06891461085786975 -0.9527510336564282
vn 0.10804286444515318 0.09145776969263851 0.9899304095770242
vn 0.202948332135945 0.10523979345886449 0.9735176220058751
vn 0.17729321003295967 0.7513702532056831 0.6356176997801716
vn 0.5144954384643616 0.8574931158903633 1.7610427639381305e-8
vn 0.17888525250486118 0.9838699438626388 6.122981001332095e-9
vn 0.5144954384643616 0.8574931158903633 1.7610427639381305e-8
vn 0.17888525250486118 0.9838699438626388 6.122981001332095e-9
vn 0.26312440147218985 0.7705649990985842 -0.5805128177000923
vn 0.30940677141909356 0.4582578257150045 -0.8332269888637607
vn 0.26502164891318675 0.4069426810537262 -0.8741631311969986
vn 0.0836116265713948 0.02744286303790504 0.9961204671978026
vn 0.10804286444515318 0.09145776969263851 0.9899304095770242
vn 0.8741573740439099 0.48564275491831954 2.992113054875645e-8
vn 0.7801653924996412 0.6255654077098552 -0.003143409404322613
vn 0.8741573740439099 0.48564275491831954 2.992113054875645e-8
vn 0.7801653924996412 0.6255654077098552 -0.003143409404322613
vn 0.26502164891318675 0.4069426810537262 -0.8741631311969986
vn 0.35949626915973043 0.07938277406631099 -0.9297638450928126
vn 0.10804286444515318 0.09145776969263851 0.9899304095770242
vn 0.8741573740439099 0.48564275491831954 2.992113054875645e-8
vn 0.17888525250486118 0.9838699438626388 6.122981001332095e-9
vn 0.8741573740439099 0.48564275491831954 2.992113054875645e-8
vn 0.17888525250486118 0.9838699438626388 6.122981001332095e-9
vn 0.26502164891318675 0.4069426810537262 -0.8741631311969986
vn 0.026329435543299876 -0.08017162285224623 0.9964332750933242
vn 0.0836116265713948 0.02744286303790504 0.9961204671978026
vn -0.7822629371500621 -0.6229480468346904 -0.0006542982518714134
vn -0.8296170570292237 -0.5578602661869424 -0.02296654297023083
vn -0.7822629371500621 -0.6229480468346904 -0.0006542982518714134
vn -0.8296170570292237 -0.5578602661869424 -0.02296654297023083
vn -0.7482585300799031 -0.6603083425532086 -0.06404736463975369
vn 0.35949626915973043 0.07938277406631099 -0.9297638450928126
vn 0.03806826849961295 0.15810546990028865 -0.986688130728778
vn 0.026329435543299876 -0.08017162285224623 0.9964332750933242
vn 0.0836116265713948 0.02744286303790504 0.9961204671978026
vn 0.838132311200553 0.5450052827683408 0.022438152246129467
vn 0.7801653924996412 0.6255654077098552 -0.003143409404322613
vn 0.026329435543299876 -0.08017162285224623 0.9964332750933242
vn 0.10957677258121853 -0.2695193398663439 0.9567404331106185
vn -0.8296170570292237 -0.5578602661869424 -0.02296654297023083
vn -0.7482585300799031 -0.6603083425532086 -0.06404736463975369
vn 0.026329435543299876 -0.08017162285224623 0.9964332750933242
vn 0.10957677258121853 -0.2695193398663439 0.9567404331106185
vn 0.838132311200553 0.5450052827683408 0.022438152246129467
vn 0.8784189530369065 0.4778314613777766 0.007565544469725923
vn 0.838132311200553 0.5450052827683408 0.022438152246129467
vn 0.8784189530369065 0.4778314613777766 0.007565544469725923
vn 0.7801653924996412 0.6255654077098552 -0.003143409404322613
vn 0.35949626915973043 0.07938277406631099 -0.9297638450928126
vn 0.03806826849961295 0.15810546990028865 -0.986688130728778
vn -0.13181972599822037 0.01369205618585662 0.991179139931404
vn 0.10957677258121853 -0.2695193398663439 0.9567404331106185
vn -0.9268991254021178 -0.374908199821066 -0.017373918260330013
vn -0.7482585300799031 -0.6603083425532086 -0.06404736463975369
vn -0.9268991254021178 -0.374908199821066 -0.017373918260330013
vn -0.7482585300799031 -0.6603083425532086 -0.06404736463975369
vn -0.004024688565918123 0.3130717621107906 -0.9497209451469373
vn 0.03806826849961295 0.15810546990028865 -0.986688130728778
vn -0.13181972599822037 0.01369205618585662 0.991179139931404
vn 0.10957677258121853 -0.2695193398663439 0.9567404331106185
vn 0.7514194901456336 0.656804668328355 0.06305852433537584
vn 0.8784189530369065 0.4778314613777766 0.007565544469725923
vn 0.7514194901456336 0.656804668328355 0.06305852433537584
vn 0.8784189530369065 0.4778314613777766 0.007565544469725923
vn -0.004024688565918123 0.3130717621107906 -0.9497209451469373
vn 0.03806826849961295 0.15810546990028865 -0.986688130728778
vn -0.13181972599822037 0.01369205618585662 0.991179139931404
vn -0.9268991254021178 -0.374908199821066 -0.017373918260330013
vn 0.6299851208261771 -0.7643574403307125 -0.13739159708187598
vn -0.9268991254021178 -0.374908199821066 -0.017373918260330013
vn 0.6299851208261771 -0.7643574403307125 -0.13739159708187598
vn -0.004024688565918123 0.3130717621107906 -0.9497209451469373
vn -0.13181972599822037 0.01369205618585662 0.991179139931404
vn 0.7514194901456336 0.656804668328355 0.06305852433537584
vn 0.6299851208261771 -0.7643574403307125 -0.13739159708187598
vn 0.7514194901456336 0.656804668328355 0.06305852433537584
vn 0.6299851208261771 -0.7643574403307125 -0.13739159708187598
vn -0.004024688565918123 0.3130717621107906 -0.9497209451469373
vn 0.30250040753111573 0.02520836134000442 0.9528158489246811
vn 0.17729321003295967 0.7513702532056831 0.6356176997801716
vn 0.9863939305521227 0.1643989469854747 3.3762824000462585e-8
vn 0.5144954384643616 0.8574931158903633 1.7610427639381305e-8
vn 0.9863939305521227 0.1643989469854747 3.3762824000462585e-8
vn 0.5144954384643616 0.8574931158903633 1.7610427639381305e-8
vn 0.26312440147218985 0.7705649990985842 -0.5805128177000923
vn 0.45815207435610805 0.03817933518277511 -0.8880534978976191
vn 0.30250040753111573 0.02520836134000442 0.9528158489246811
vn 0.316083719729996 -0.4942704206877034 0.8098072816138728
vn 0.9799173614807982 -0.1994023032225195 0.0008283345128455898
vn 0.9863939305521227 0.1643989469854747 3.3762824000462585e-8
vn 0.9799173614807982 -0.1994023032225195 0.0008283345128455898
vn 0.9863939305521227 0.1643989469854747 3.3762824000462585e-8
vn 0.15515175418445978 -0.9804905855441414 -0.12069028474898823
vn 0.45815207435610805 0.03817933518277511 -0.8880534978976191
vn 0.3583885252879528 -0.11946878648627 0.9258967944633054
vn 0.316083719729996 -0.4942704206877034 0.8098072816138728
vn 0.983613823863717 -0.17956969597864203 0.016080105420500194
vn 0.9799173614807982 -0.1994023032225195 0.0008283345128455898
vn 0.983613823863717 -0.17956969597864203 0.016080105420500194
vn 0.9799173614807982 -0.1994023032225195 0.0008283345128455898
vn 0.15515175418445978 -0.9804905855441414 -0.12069028474898823
vn 0.4738885626892641 -0.04738884520089801 -0.8793087782473396
vn 0.3583885252879528 -0.11946878648627 0.9258967944633054
vn 0.3025267024063144 0.5726288583798299 0.7619539256948376
vn 0.983613823863717 -0.17956969597864203 0.016080105420500194
vn 0.9663090276404733 0.2550229739414538 -0.03478715082583525
vn 0.983613823863717 -0.17956969597864203 0.016080105420500194
vn 0.9663090276404733 0.2550229739414538 -0.03478715082583525
vn 0.4422712398588668 0.266898214870229 -0.8562484997316995
vn 0.4738885626892641 -0.04738884520089801 -0.8793087782473396
vn 0.3025267024063144 0.5726288583798299 0.7619539256948376
vn 0.15730010564188454 0.9875508476858555 5.384152940872625e-9
vn 0.9663090276404733 0.2550229739414538 -0.03478715082583525
vn 0.15730010564188454 0.9875508476858555 5.384152940872625e-9
vn 0.9663090276404733 0.2550229739414538 -0.03478715082583525
vn 0.4422712398588668 0.266898214870229 -0.8562484997316995
f 19/19/19 23/23/23 5/5/5
f 19/19/19 5/5/5 2/2/2
f 6/6/6 25/25/25 123/123/123
f 6/6/6 123/123/123 128/128/128
f 37/37/37 45/45/45 76/76/76
f 37/37/37 76/76/76 85/85/85
f 4/4/4 8/8/8 14/14/14
f 4/4/4 14/14/14 10/10/10
f 12/12/12 31/31/31 44/44/44
f 12/12/12 44/44/44 52/52/52
f 28/28/28 22/22/22 66/66/66
f 28/28/28 66/66/66 42/42/42
f 3/3/3 9/9/9 49/49/49
f 3/3/3 49/49/49 59/59/59
f 60/60/60 50/50/50 53/53/53
f 41/41/41 65/65/65 68/68/68
f 51/51/51 43/43/43 69/69/69
f 51/51/51 69/69/69 55/55/55
f 56/56/56 70/70/70 94/94/94
f 56/56/56 94/94/94 90/90/90
f 17/17/17 1/1/1 57/57/57
f 17/17/17 57/57/57 62/62/62
f 80/80/80 87/87/87 108/108/108
f 80/80/80 108/108/108 103/103/103
f 48/48/48 89/89/89 72/72/72
f 48/48/48 72/72/72 78/78/78
f 93/93/93 40/40/40 86/86/86
f 93/93/93 86/86/86 79/79/79
f 91/91/91 95/95/95 83/83/83
f 91/91/91 83/83/83 74/74/74
f 67/67/67 64/64/64 39/39/39
f 67/67/67 39/39/39 92/92/92
f 61/61/61 54/54/54 88/88/88
f 61/61/61 88/88/88 47/47/47
f 63/63/63 58/58/58 46/46/46
f 63/63/63 46/46/46 38/38/38
f 100/100/100 96/96/96 102/102/102
f 100/100/100 102/102/102 107/107/107
f 104/104/104 97/97/97 118/118/118
f 104/104/104 118/118/118 115/115/115
f 84/84/84 75/75/75 99/99/99
f 84/84/84 99/99/99 106/106/106
f 77/77/77 71/71/71 98/98/98
f 77/77/77 98/98/98 101/101/101
f 114/114/114 111/111/111 117/117/117
f 114/114/114 117/117/117 120/120/120
f 73/73/73 82/82/82 110/110/110
f 73/73/73 110/110/110 113/113/113
f 98/98/98 71/71/71 112/112/112
f 98/98/98 112/112/112 119/119/119
f 81/81/81 105/105/105 116/116/116
f 81/81/81 116/116/116 109/109/109
f 137/137/137 133/133/133 153/153/153
f 137/137/137 153/153/153 157/157/157
f 33/33/33 15/15/15 136/136/136
f 33/33/33 136/136/136 139/139/139
f 13/13/13 7/7/7 129/129/129
f 13/13/13 129/129/129 131/131/131
f 150/150/150 148/148/148 234/234/234
f 150/150/150 234/234/234 236/236/236
f 127/127/127 121/121/121 141/141/141
f 127/127/127 141/141/141 146/146/146
f 154/154/154 134/134/134 165/165/165
f 154/154/154 165/165/165 172/172/172
f 163/163/163 161/161/161 168/168/168
f 163/163/163 168/168/168 170/170/170
f 126/126/126 145/145/145 167/167/167
f 126/126/126 167/167/167 160/160/160
f 166/166/166 135/135/135 180/180/180
f 166/166/166 180/180/180 197/197/197
f 149/149/149 151/151/151 171/171/171
f 149/149/149 171/171/171 169/169/169
f 162/162/162 164/164/164 196/196/196
f 162/162/162 196/196/196 185/185/185
f 132/132/132 130/130/130 175/175/175
f 132/132/132 175/175/175 177/177/177
f 125/125/125 159/159/159 183/183/183
f 125/125/125 183/183/183 174/174/174
f 187/187/187 191/191/191 208/208/208
f 187/187/187 208/208/208 200/200/200
f 178/178/178 176/176/176 188/188/188
f 173/173/173 182/182/182 190/190/190
f 173/173/173 190/190/190 186/186/186
f 184/184/184 194/194/194 192/192/192
f 199/199/199 207/207/207 221/221/221
f 199/199/199 221/221/221 215/215/215
f 193/193/193 195/195/195 212/212/212
f 193/193/193 212/212/212 210/210/210
f 198/198/198 181/181/181 206/206/206
f 198/198/198 206/206/206 214/214/214
f 179/179/179 189/189/189 202/202/202
f 179/179/179 202/202/202 204/204/204
f 219/219/219 217/217/217 223/223/223
f 219/219/219 223/223/223 225/225/225
f 209/209/209 211/211/211 224/224/224
f 209/209/209 224/224/224 222/222/222
f 213/213/213 205/205/205 220/220/220
f 213/213/213 220/220/220 226/226/226
f 203/203/203 201/201/201 216/216/216
f 203/203/203 216/216/216 218/218/218
f 242/242/242 238/238/238 254/254/254
f 242/242/242 254/254/254 258/258/258
f 147/147/147 143/143/143 229/229/229
f 147/147/147 229/229/229 232/232/232
f 155/155/155 152/152/152 237/237/237
f 155/155/155 237/237/237 239/239/239
f 251/251/251 249/249/249 266/266/266
f 251/251/251 266/266/266 268/268/268
f 231/231/231 227/227/227 243/243/243
f 231/231/231 243/243/243 247/247/247
f 235/235/235 233/233/233 250/250/250
f 235/235/235 250/250/250 252/252/252
f 267/267/267 265/265/265 281/281/281
f 267/267/267 281/281/281 283/283/283
f 256/256/256 253/253/253 269/269/269
f 256/256/256 269/269/269 272/272/272
f 248/248/248 245/245/245 261/261/261
f 248/248/248 261/261/261 264/264/264
f 284/284/284 282/282/282 297/297/297
f 284/284/284 297/297/297 299/299/299
f 274/274/274 270/270/270 286/286/286
f 274/274/274 286/286/286 290/290/290
f 263/263/263 259/259/259 275/275/275
f 263/263/263 275/275/275 279/279/279
f 298/298/298 296/296/296 293/293/293
f 298/298/298 293/293/293 301/301/301
f 287/287/287 285/285/285 300/300/300
f 287/287/287 300/300/300 303/303/303
f 280/280/280 277/277/277 291/291/291
f 280/280/280 291/291/291 295/295/295
f 11/11/11 16/16/16 35/35/35
f 11/11/11 35/35/35 29/29/29
f 20/20/20 306/306/306 309/309/309
f 20/20/20 309/309/309 24/24/24
f 310/310/310 408/408/408 124/124/124
f 310/310/310 124/124/124 26/26/26
f 321/321/321 369/369/369 360/360/360
f 321/321/321 360/360/360 329/329/329
f 308/308/308 314/314/314 318/318/318
f 308/308/308 318/318/318 312/312/312
f 316/316/316 336/336/336 328/328/328
f 316/316/316 328/328/328 32/32/32
f 27/27/27 326/326/326 350/350/350
f 27/27/27 350/350/350 21/21/21
f 307/307/307 343/343/343 333/333/333
f 307/307/307 333/333/333 313/313/313
f 344/344/344 337/337/337 334/334/334
f 325/325/325 352/352/352 349/349/349
f 335/335/335 339/339/339 353/353/353
f 335/335/335 353/353/353 327/327/327
f 340/340/340 374/374/374 378/378/378
f 340/340/340 378/378/378 354/354/354
f 18/18/18 346/346/346 341/341/341
f 18/18/18 341/341/341 305/305/305
f 364/364/364 387/387/387 392/392/392
f 364/364/364 392/392/392 371/371/371
f 332/332/332 362/362/362 356/356/356
f 332/332/332 356/356/356 373/373/373
f 377/377/377 363/363/363 370/370/370
f 377/377/377 370/370/370 324/324/324
f 375/375/375 358/358/358 367/367/367
f 375/375/375 367/367/367 379/379/379
f 351/351/351 376/376/376 323/323/323
f 351/351/351 323/323/323 348/348/348
f 345/345/345 331/331/331 372/372/372
f 345/345/345 372/372/372 338/338/338
f 347/347/347 322/322/322 330/330/330
f 347/347/347 330/330/330 342/342/342
f 384/384/384 391/391/391 386/386/386
f 384/384/384 386/386/386 380/380/380
f 388/388/388 399/399/399 402/402/402
f 388/388/388 402/402/402 381/381/381
f 368/368/368 390/390/390 383/383/383
f 368/368/368 383/383/383 359/359/359
f 361/361/361 385/385/385 382/382/382
f 361/361/361 382/382/382 355/355/355
f 398/398/398 404/404/404 401/401/401
f 398/398/398 401/401/401 395/395/395
f 357/357/357 397/397/397 394/394/394
f 357/357/357 394/394/394 366/366/366
f 382/382/382 403/403/403 396/396/396
f 382/382/382 396/396/396 355/355/355
f 365/365/365 393/393/393 400/400/400
f 365/365/365 400/400/400 389/389/389
f 138/138/138 158/158/158 425/425/425
f 138/138/138 425/425/425 413/413/413
f 34/34/34 140/140/140 416/416/416
f 34/34/34 416/416/416 319/319/319
f 317/317/317 411/411/411 409/409/409
f 317/317/317 409/409/409 311/311/311
f 422/422/422 500/500/500 498/498/498
f 422/422/422 498/498/498 420/420/420
f 407/407/407 418/418/418 142/142/142
f 407/407/407 142/142/142 122/122/122
f 426/426/426 440/440/440 433/433/433
f 426/426/426 433/433/433 414/414/414
f 431/431/431 438/438/438 436/436/436
f 431/431/431 436/436/436 429/429/429
f 406/406/406 428/428/428 435/435/435
f 406/406/406 435/435/435 417/417/417
f 434/434/434 465/465/465 448/448/448
f 434/434/434 448/448/448 415/415/415
f 421/421/421 437/437/437 439/439/439
f 421/421/421 439/439/439 423/423/423
f 430/430/430 453/453/453 464/464/464
f 430/430/430 464/464/464 432/432/432
f 412/412/412 445/445/445 443/443/443
f 412/412/412 443/443/443 410/410/410
f 405/405/405 442/442/442 451/451/451
f 405/405/405 451/451/451 427/427/427
f 455/455/455 468/468/468 476/476/476
f 455/455/455 476/476/476 459/459/459
f 446/446/446 456/456/456 444/444/444
f 441/441/441 454/454/454 458/458/458
f 441/441/441 458/458/458 450/450/450
f 452/452/452 460/460/460 462/462/462
f 467/467/467 483/483/483 489/489/489
f 467/467/467 489/489/489 475/475/475
f 461/461/461 478/478/478 480/480/480
f 461/461/461 480/480/480 463/463/463
f 466/466/466 482/482/482 474/474/474
f 466/466/466 474/474/474 449/449/449
f 447/447/447 472/472/472 470/470/470
f 447/447/447 470/470/470 457/457/457
f 487/487/487 493/493/493 491/491/491
f 487/487/487 491/491/491 485/485/485
f 477/477/477 490/490/490 492/492/492
f 477/477/477 492/492/492 479/479/479
f 481/481/481 494/494/494 488/488/488
f 481/481/481 488/488/488 473/473/473
f 471/471/471 486/486/486 484/484/484
f 471/471/471 484/484/484 469/469/469
f 241/241/241 257/257/257 510/510/510
f 241/241/241 510/510/510 502/502/502
f 419/419/419 496/496/496 230/230/230
f 419/419/419 230/230/230 144/144/144
f 156/156/156 240/240/240 501/501/501
f 156/156/156 501/501/501 424/424/424
f 507/507/507 516/516/516 514/514/514
f 507/507/507 514/514/514 505/505/505
f 495/495/495 503/503/503 244/244/244
f 495/495/495 244/244/244 228/228/228
f 499/499/499 508/508/508 506/506/506
f 499/499/499 506/506/506 497/497/497
f 515/515/515 523/523/523 521/521/521
f 515/515/515 521/521/521 513/513/513
f 255/255/255 271/271/271 517/517/517
f 255/255/255 517/517/517 509/509/509
f 504/504/504 512/512/512 262/262/262
f 504/504/504 262/262/262 246/246/246
f 524/524/524 531/531/531 529/529/529
f 524/524/524 529/529/529 522/522/522
f 273/273/273 289/289/289 526/526/526
f 273/273/273 526/526/526 518/518/518
f 511/511/511 519/519/519 276/276/276
f 511/511/511 276/276/276 260/260/260
f 530/530/530 302/302/302 294/294/294
f 530/530/530 294/294/294 528/528/528
f 288/288/288 304/304/304 532/532/532
f 288/288/288 532/532/532 525/525/525
f 520/520/520 527/527/527 292/292/292
f 520/520/520 292/292/292 278/278/278
f 315/315/315 30/30/30 36/36/36
f 315/315/315 36/36/36 320/320/320
